<svg xmlns="http://www.w3.org/2000/svg" viewBox="0 0 940 1852" width="940" height="1852" font-family="Helvetica,Arial,sans-serif">
<defs><marker id="arrow" markerWidth="10" markerHeight="10" refX="8" refY="3" orient="auto" markerUnits="strokeWidth"><path d="M0,0 L8,3 L0,6 z" fill="#555"/></marker></defs>
<rect x="0" y="0" width="940" height="1852" fill="#ffffff"/>
<text x="20" y="30" font-size="18" font-weight="bold" fill="#111">Cisco IOS-XE Upgrade (RESTCONF) — what it does</text>
<rect x="540" y="45" width="400" height="130" rx="6" ry="6" fill="#fbfbfb" stroke="#bbb" stroke-width="1.5"/>
<text x="740" y="58" text-anchor="middle" font-family="Helvetica,Arial,sans-serif" font-size="10" fill="#333"><tspan x="740" dy="0">Legend</tspan><tspan x="740" dy="13">numbers = the phases (see the README)</tspan><tspan x="740" dy="13">diamonds = decisions; white rounded boxes to</tspan><tspan x="740" dy="13">the right = opt-in steps (8a/8b health checks,</tspan><tspan x="740" dy="13">remove inactive) — the flow continues down</tspan><tspan x="740" dy="13">and rejoins the spine either way</tspan><tspan x="740" dy="13">green = successful end state</tspan><tspan x="740" dy="13">red = this device stops here</tspan><tspan x="740" dy="13">Detailed gate-by-gate flow: docs/upgrade-flow.svg</tspan></text>
<path d="M 340 104 L 340 155" fill="none" stroke="#555" stroke-width="1.5" marker-end="url(#arrow)"/>
<path d="M 340 217 L 340 263" fill="none" stroke="#555" stroke-width="1.5" marker-end="url(#arrow)"/>
<path d="M 340 325 L 340 360" fill="none" stroke="#555" stroke-width="1.5" marker-end="url(#arrow)"/>
<path d="M 340 444 L 340 479" fill="none" stroke="#555" stroke-width="1.5" marker-end="url(#arrow)"/>
<rect x="346" y="452" width="21" height="18" rx="3" fill="#ffffff" fill-opacity="0.85" stroke="none"/><text x="356" y="466" text-anchor="middle" font-family="Helvetica,Arial,sans-serif" font-size="11" fill="#333"><tspan x="356" dy="0">No</tspan></text>
<path d="M 340 541 L 340 576" fill="none" stroke="#555" stroke-width="1.5" marker-end="url(#arrow)"/>
<path d="M 340 660 L 340 695" fill="none" stroke="#555" stroke-width="1.5" marker-end="url(#arrow)"/>
<rect x="346" y="668" width="21" height="18" rx="3" fill="#ffffff" fill-opacity="0.85" stroke="none"/><text x="356" y="682" text-anchor="middle" font-family="Helvetica,Arial,sans-serif" font-size="11" fill="#333"><tspan x="356" dy="0">No</tspan></text>
<path d="M 340 757 L 340 792" fill="none" stroke="#555" stroke-width="1.5" marker-end="url(#arrow)"/>
<path d="M 340 876 L 340 900" fill="none" stroke="#555" stroke-width="1.5" marker-end="url(#arrow)"/>
<rect x="346" y="879" width="21" height="18" rx="3" fill="#ffffff" fill-opacity="0.85" stroke="none"/><text x="356" y="892" text-anchor="middle" font-family="Helvetica,Arial,sans-serif" font-size="11" fill="#333"><tspan x="356" dy="0">No</tspan></text>
<path d="M 340 984 L 340 1047" fill="none" stroke="#555" stroke-width="1.5" marker-end="url(#arrow)"/>
<rect x="346" y="1006" width="21" height="18" rx="3" fill="#ffffff" fill-opacity="0.85" stroke="none"/><text x="356" y="1020" text-anchor="middle" font-family="Helvetica,Arial,sans-serif" font-size="11" fill="#333"><tspan x="356" dy="0">No</tspan></text>
<path d="M 340 1109 L 340 1144" fill="none" stroke="#555" stroke-width="1.5" marker-end="url(#arrow)"/>
<path d="M 340 1228 L 340 1263" fill="none" stroke="#555" stroke-width="1.5" marker-end="url(#arrow)"/>
<rect x="342" y="1236" width="28" height="18" rx="3" fill="#ffffff" fill-opacity="0.85" stroke="none"/><text x="356" y="1250" text-anchor="middle" font-family="Helvetica,Arial,sans-serif" font-size="11" fill="#333"><tspan x="356" dy="0">Yes</tspan></text>
<path d="M 340 1325 L 340 1371" fill="none" stroke="#555" stroke-width="1.5" marker-end="url(#arrow)"/>
<path d="M 340 1433 L 340 1468" fill="none" stroke="#555" stroke-width="1.5" marker-end="url(#arrow)"/>
<path d="M 340 1552 L 340 1604" fill="none" stroke="#555" stroke-width="1.5" marker-end="url(#arrow)"/>
<rect x="346" y="1569" width="21" height="18" rx="3" fill="#ffffff" fill-opacity="0.85" stroke="none"/><text x="356" y="1582" text-anchor="middle" font-family="Helvetica,Arial,sans-serif" font-size="11" fill="#333"><tspan x="356" dy="0">No</tspan></text>
<path d="M 340 1688 L 340 1756" fill="none" stroke="#555" stroke-width="1.5" marker-end="url(#arrow)"/>
<rect x="346" y="1713" width="21" height="18" rx="3" fill="#ffffff" fill-opacity="0.85" stroke="none"/><text x="356" y="1726" text-anchor="middle" font-family="Helvetica,Arial,sans-serif" font-size="11" fill="#333"><tspan x="356" dy="0">No</tspan></text>
<path d="M 465 402 L 580 402" fill="none" stroke="#2E7D32" stroke-width="1.5" marker-end="url(#arrow)"/>
<rect x="509" y="383" width="28" height="18" rx="3" fill="#ffffff" fill-opacity="0.85" stroke="none"/><text x="522.5" y="396" text-anchor="middle" font-family="Helvetica,Arial,sans-serif" font-size="11" fill="#2E7D32"><tspan x="522.5" dy="0">Yes</tspan></text>
<rect x="580" y="370" width="320" height="64" rx="22" ry="22" fill="#D5E8D4" stroke="#2E7D32" stroke-width="1.5"/>
<text x="740.0" y="395" text-anchor="middle" font-family="Helvetica,Arial,sans-serif" font-size="11" font-weight="bold" fill="#1b5e20"><tspan x="740.0" dy="0">DONE: Dry-run — reports what</tspan><tspan x="740.0" dy="14">WOULD happen; no changes made</tspan></text>
<path d="M 465 618 L 580 618" fill="none" stroke="#2E7D32" stroke-width="1.5" marker-end="url(#arrow)"/>
<rect x="509" y="599" width="28" height="18" rx="3" fill="#ffffff" fill-opacity="0.85" stroke="none"/><text x="522.5" y="612" text-anchor="middle" font-family="Helvetica,Arial,sans-serif" font-size="11" fill="#2E7D32"><tspan x="522.5" dy="0">Yes</tspan></text>
<rect x="580" y="586" width="320" height="64" rx="22" ry="22" fill="#D5E8D4" stroke="#2E7D32" stroke-width="1.5"/>
<text x="740.0" y="611" text-anchor="middle" font-family="Helvetica,Arial,sans-serif" font-size="11" font-weight="bold" fill="#1b5e20"><tspan x="740.0" dy="0">DONE: Staged (Step 1) — image</tspan><tspan x="740.0" dy="14">copied to flash; nothing else</tspan></text>
<path d="M 465 834 L 580 834" fill="none" stroke="#2E7D32" stroke-width="1.5" marker-end="url(#arrow)"/>
<rect x="509" y="815" width="28" height="18" rx="3" fill="#ffffff" fill-opacity="0.85" stroke="none"/><text x="522.5" y="828" text-anchor="middle" font-family="Helvetica,Arial,sans-serif" font-size="11" fill="#2E7D32"><tspan x="522.5" dy="0">Yes</tspan></text>
<rect x="580" y="802" width="320" height="64" rx="22" ry="22" fill="#D5E8D4" stroke="#2E7D32" stroke-width="1.5"/>
<text x="740.0" y="827" text-anchor="middle" font-family="Helvetica,Arial,sans-serif" font-size="11" font-weight="bold" fill="#1b5e20"><tspan x="740.0" dy="0">DONE: Staged (Steps 1 &amp; 2) — added</tspan><tspan x="740.0" dy="14">&amp; marked for activation; not reloaded</tspan></text>
<path d="M 465 942 L 580 942" fill="none" stroke="#555" stroke-width="1.5" marker-end="url(#arrow)"/>
<rect x="509" y="923" width="28" height="18" rx="3" fill="#ffffff" fill-opacity="0.85" stroke="none"/><text x="522.5" y="936" text-anchor="middle" font-family="Helvetica,Arial,sans-serif" font-size="11" fill="#333"><tspan x="522.5" dy="0">Yes</tspan></text>
<rect x="580" y="910" width="320" height="64" rx="22" ry="22" fill="#FFFFFF" stroke="#5B6B7B" stroke-width="1.5"/>
<text x="740.0" y="928" text-anchor="middle" font-family="Helvetica,Arial,sans-serif" font-size="11" fill="#1a1a1a"><tspan x="740.0" dy="0">Pre-test (8a): capture the health baseline</tspan><tspan x="740.0" dy="14">(ports · CDP/LLDP · environment · reboot</tspan><tspan x="740.0" dy="14">reason; a failed read aborts BEFORE activate)</tspan></text>
<path d="M 740 974 L 740 1038 L 340 1038" fill="none" stroke="#555" stroke-width="1.5" marker-end="url(#arrow)"/>
<path d="M 465 1186 L 580 1186" fill="none" stroke="#B85450" stroke-width="1.5" marker-end="url(#arrow)"/>
<rect x="512" y="1167" width="21" height="18" rx="3" fill="#ffffff" fill-opacity="0.85" stroke="none"/><text x="522.5" y="1180" text-anchor="middle" font-family="Helvetica,Arial,sans-serif" font-size="11" fill="#B85450"><tspan x="522.5" dy="0">No</tspan></text>
<rect x="580" y="1154" width="320" height="64" rx="22" ry="22" fill="#F8CECC" stroke="#B85450" stroke-width="1.5"/>
<text x="740.0" y="1179" text-anchor="middle" font-family="Helvetica,Arial,sans-serif" font-size="11" font-weight="bold" fill="#8a1f1f"><tspan x="740.0" dy="0">Auto-rollback to the previous</tspan><tspan x="740.0" dy="14">image — NOT committed</tspan></text>
<path d="M 465 1510 L 580 1510" fill="none" stroke="#555" stroke-width="1.5" marker-end="url(#arrow)"/>
<rect x="509" y="1491" width="28" height="18" rx="3" fill="#ffffff" fill-opacity="0.85" stroke="none"/><text x="522.5" y="1504" text-anchor="middle" font-family="Helvetica,Arial,sans-serif" font-size="11" fill="#333"><tspan x="522.5" dy="0">Yes</tspan></text>
<rect x="580" y="1478" width="320" height="64" rx="22" ry="22" fill="#FFFFFF" stroke="#5B6B7B" stroke-width="1.5"/>
<text x="740.0" y="1496" text-anchor="middle" font-family="Helvetica,Arial,sans-serif" font-size="11" fill="#1a1a1a"><tspan x="740.0" dy="0">install remove inactive — reclaim flash</tspan><tspan x="740.0" dy="14">space (old packages &amp; prior images);</tspan><tspan x="740.0" dy="14">gated &amp; tracked like every engine write</tspan></text>
<path d="M 740 1542 L 740 1595 L 340 1595" fill="none" stroke="#555" stroke-width="1.5" marker-end="url(#arrow)"/>
<path d="M 465 1646 L 580 1646" fill="none" stroke="#555" stroke-width="1.5" marker-end="url(#arrow)"/>
<rect x="509" y="1627" width="28" height="18" rx="3" fill="#ffffff" fill-opacity="0.85" stroke="none"/><text x="522.5" y="1640" text-anchor="middle" font-family="Helvetica,Arial,sans-serif" font-size="11" fill="#333"><tspan x="522.5" dy="0">Yes</tspan></text>
<rect x="580" y="1614" width="320" height="64" rx="22" ry="22" fill="#FFFFFF" stroke="#5B6B7B" stroke-width="1.5"/>
<text x="740.0" y="1632" text-anchor="middle" font-family="Helvetica,Arial,sans-serif" font-size="11" fill="#1a1a1a"><tspan x="740.0" dy="0">Post-test (8b): compare vs the baseline</tspan><tspan x="740.0" dy="14">(everything up/present before must return;</tspan><tspan x="740.0" dy="14">convergence-aware ~10 min; report-only)</tspan></text>
<path d="M 740 1678 L 740 1747 L 340 1747" fill="none" stroke="#555" stroke-width="1.5" marker-end="url(#arrow)"/>
<rect x="160" y="52" width="360" height="52" rx="24" ry="24" fill="#DAE8FC" stroke="#6C8EBF" stroke-width="1.5"/>
<text x="340" y="70" text-anchor="middle" font-family="Helvetica,Arial,sans-serif" font-size="12" font-weight="bold" fill="#1b3a6b"><tspan x="340" dy="0">Select devices + target version</tspan><tspan x="340" dy="15">(Nautobot → Jobs)</tspan></text>
<rect x="150" y="155" width="380" height="62" rx="6" ry="6" fill="#FFFFFF" stroke="#5B6B7B" stroke-width="1.5"/>
<text x="340" y="179" text-anchor="middle" font-family="Helvetica,Arial,sans-serif" font-size="11" fill="#1a1a1a"><tspan x="340" dy="0">Connect &amp; authenticate</tspan><tspan x="340" dy="14">(RESTCONF over HTTPS, creds from Nautobot Secrets)</tspan></text>
<rect x="150" y="263" width="380" height="62" rx="6" ry="6" fill="#FFFFFF" stroke="#5B6B7B" stroke-width="1.5"/>
<text x="340" y="287" text-anchor="middle" font-family="Helvetica,Arial,sans-serif" font-size="11" fill="#1a1a1a"><tspan x="340" dy="0">Pre-flight gates</tspan><tspan x="340" dy="14">≥ 17.9.1 · install mode · image resolved · free space</tspan></text>
<polygon points="340,360.0 465.0,402 340,444.0 215.0,402" fill="#E8EEF6" stroke="#3C6CA8" stroke-width="1.5"/>
<text x="340" y="402" text-anchor="middle" font-family="Helvetica,Arial,sans-serif" font-size="11" font-weight="bold" fill="#13335c"><tspan x="340" dy="0">Dry-run?</tspan></text>
<rect x="150" y="479" width="380" height="62" rx="6" ry="6" fill="#FFFFFF" stroke="#5B6B7B" stroke-width="1.5"/>
<text x="340" y="503" text-anchor="middle" font-family="Helvetica,Arial,sans-serif" font-size="11" fill="#1a1a1a"><tspan x="340" dy="0">Copy image + verify exact size</tspan><tspan x="340" dy="14">(skipped if the file is already on flash)</tspan></text>
<polygon points="340,576.0 465.0,618 340,660.0 215.0,618" fill="#E8EEF6" stroke="#3C6CA8" stroke-width="1.5"/>
<text x="340" y="611" text-anchor="middle" font-family="Helvetica,Arial,sans-serif" font-size="11" font-weight="bold" fill="#13335c"><tspan x="340" dy="0">Run scope =</tspan><tspan x="340" dy="14">Step 1 (copy) only?</tspan></text>
<rect x="150" y="695" width="380" height="62" rx="6" ry="6" fill="#FFFFFF" stroke="#5B6B7B" stroke-width="1.5"/>
<text x="340" y="719" text-anchor="middle" font-family="Helvetica,Arial,sans-serif" font-size="11" fill="#1a1a1a"><tspan x="340" dy="0">install add — extract &amp; stage the image</tspan><tspan x="340" dy="14">(gate → track via the device&#x27;s ledger)</tspan></text>
<polygon points="340,792.0 465.0,834 340,876.0 215.0,834" fill="#E8EEF6" stroke="#3C6CA8" stroke-width="1.5"/>
<text x="340" y="820" text-anchor="middle" font-family="Helvetica,Arial,sans-serif" font-size="11" font-weight="bold" fill="#13335c"><tspan x="340" dy="0">Run scope =</tspan><tspan x="340" dy="14">Steps 1 &amp; 2</tspan><tspan x="340" dy="14">(copy + prep)?</tspan></text>
<polygon points="340,900.0 465.0,942 340,984.0 215.0,942" fill="#E8EEF6" stroke="#3C6CA8" stroke-width="1.5"/>
<text x="340" y="935" text-anchor="middle" font-family="Helvetica,Arial,sans-serif" font-size="11" font-weight="bold" fill="#13335c"><tspan x="340" dy="0">Health checks</tspan><tspan x="340" dy="14">opted in?</tspan></text>
<rect x="150" y="1047" width="380" height="62" rx="6" ry="6" fill="#FFFFFF" stroke="#5B6B7B" stroke-width="1.5"/>
<text x="340" y="1071" text-anchor="middle" font-family="Helvetica,Arial,sans-serif" font-size="11" fill="#1a1a1a"><tspan x="340" dy="0">Activate (non-ISSU) → reload</tspan><tspan x="340" dy="14">(gate → track via the device&#x27;s ledger)</tspan></text>
<polygon points="340,1144.0 465.0,1186 340,1228.0 215.0,1186" fill="#E8EEF6" stroke="#3C6CA8" stroke-width="1.5"/>
<text x="340" y="1179" text-anchor="middle" font-family="Helvetica,Arial,sans-serif" font-size="11" font-weight="bold" fill="#13335c"><tspan x="340" dy="0">Booted the target</tspan><tspan x="340" dy="14">&amp; came back healthy?</tspan></text>
<rect x="150" y="1263" width="380" height="62" rx="6" ry="6" fill="#FFFFFF" stroke="#5B6B7B" stroke-width="1.5"/>
<text x="340" y="1287" text-anchor="middle" font-family="Helvetica,Arial,sans-serif" font-size="11" fill="#1a1a1a"><tspan x="340" dy="0">install commit</tspan><tspan x="340" dy="14">(gate → track via the device&#x27;s ledger)</tspan></text>
<rect x="150" y="1371" width="380" height="62" rx="6" ry="6" fill="#FFFFFF" stroke="#5B6B7B" stroke-width="1.5"/>
<text x="340" y="1395" text-anchor="middle" font-family="Helvetica,Arial,sans-serif" font-size="11" fill="#1a1a1a"><tspan x="340" dy="0">Sync Nautobot software version</tspan><tspan x="340" dy="14">(the device record now shows the new OS)</tspan></text>
<polygon points="340,1468.0 465.0,1510 340,1552.0 215.0,1510" fill="#E8EEF6" stroke="#3C6CA8" stroke-width="1.5"/>
<text x="340" y="1503" text-anchor="middle" font-family="Helvetica,Arial,sans-serif" font-size="11" font-weight="bold" fill="#13335c"><tspan x="340" dy="0">Remove inactive</tspan><tspan x="340" dy="14">opted in?</tspan></text>
<polygon points="340,1604.0 465.0,1646 340,1688.0 215.0,1646" fill="#E8EEF6" stroke="#3C6CA8" stroke-width="1.5"/>
<text x="340" y="1639" text-anchor="middle" font-family="Helvetica,Arial,sans-serif" font-size="11" font-weight="bold" fill="#13335c"><tspan x="340" dy="0">Health checks</tspan><tspan x="340" dy="14">opted in?</tspan></text>
<rect x="180" y="1756" width="320" height="52" rx="24" ry="24" fill="#D5E8D4" stroke="#2E7D32" stroke-width="1.5"/>
<text x="340" y="1782" text-anchor="middle" font-family="Helvetica,Arial,sans-serif" font-size="12" font-weight="bold" fill="#14532d"><tspan x="340" dy="0">DONE: Upgraded &amp; committed ✓</tspan></text>
<rect x="102" y="170" width="32" height="32" rx="16.0" ry="16.0" fill="#EDE3F6" stroke="#8E63B5" stroke-width="1.5"/><text x="118.0" y="192" text-anchor="middle" font-family="Helvetica,Arial,sans-serif" font-size="17" font-weight="bold" fill="#4A2A7A"><tspan x="118.0" dy="0">1</tspan></text>
<rect x="102" y="278" width="32" height="32" rx="16.0" ry="16.0" fill="#EDE3F6" stroke="#8E63B5" stroke-width="1.5"/><text x="118.0" y="300" text-anchor="middle" font-family="Helvetica,Arial,sans-serif" font-size="17" font-weight="bold" fill="#4A2A7A"><tspan x="118.0" dy="0">2</tspan></text>
<rect x="102" y="494" width="32" height="32" rx="16.0" ry="16.0" fill="#EDE3F6" stroke="#8E63B5" stroke-width="1.5"/><text x="118.0" y="516" text-anchor="middle" font-family="Helvetica,Arial,sans-serif" font-size="17" font-weight="bold" fill="#4A2A7A"><tspan x="118.0" dy="0">3</tspan></text>
<rect x="102" y="710" width="32" height="32" rx="16.0" ry="16.0" fill="#EDE3F6" stroke="#8E63B5" stroke-width="1.5"/><text x="118.0" y="732" text-anchor="middle" font-family="Helvetica,Arial,sans-serif" font-size="17" font-weight="bold" fill="#4A2A7A"><tspan x="118.0" dy="0">4</tspan></text>
<rect x="102" y="1062" width="32" height="32" rx="16.0" ry="16.0" fill="#EDE3F6" stroke="#8E63B5" stroke-width="1.5"/><text x="118.0" y="1084" text-anchor="middle" font-family="Helvetica,Arial,sans-serif" font-size="17" font-weight="bold" fill="#4A2A7A"><tspan x="118.0" dy="0">5</tspan></text>
<rect x="102" y="1278" width="32" height="32" rx="16.0" ry="16.0" fill="#EDE3F6" stroke="#8E63B5" stroke-width="1.5"/><text x="118.0" y="1300" text-anchor="middle" font-family="Helvetica,Arial,sans-serif" font-size="17" font-weight="bold" fill="#4A2A7A"><tspan x="118.0" dy="0">6</tspan></text>
<rect x="102" y="1386" width="32" height="32" rx="16.0" ry="16.0" fill="#EDE3F6" stroke="#8E63B5" stroke-width="1.5"/><text x="118.0" y="1408" text-anchor="middle" font-family="Helvetica,Arial,sans-serif" font-size="17" font-weight="bold" fill="#4A2A7A"><tspan x="118.0" dy="0">7</tspan></text>
<rect x="96" y="926" width="38" height="32" rx="16.0" ry="16.0" fill="#EDE3F6" stroke="#8E63B5" stroke-width="1.5"/><text x="115.0" y="948" text-anchor="middle" font-family="Helvetica,Arial,sans-serif" font-size="17" font-weight="bold" fill="#4A2A7A"><tspan x="115.0" dy="0">8a</tspan></text>
<rect x="96" y="1630" width="38" height="32" rx="16.0" ry="16.0" fill="#EDE3F6" stroke="#8E63B5" stroke-width="1.5"/><text x="115.0" y="1652" text-anchor="middle" font-family="Helvetica,Arial,sans-serif" font-size="17" font-weight="bold" fill="#4A2A7A"><tspan x="115.0" dy="0">8b</tspan></text>
</svg>