<svg xmlns="http://www.w3.org/2000/svg" viewBox="0 0 940 2584" width="940" height="2584" font-family="Helvetica,Arial,sans-serif">
<defs><marker id="arrow" markerWidth="10" markerHeight="10" refX="8" refY="3" orient="auto" markerUnits="strokeWidth"><path d="M0,0 L8,3 L0,6 z" fill="#555"/></marker></defs>
<rect x="0" y="0" width="940" height="2584" fill="#ffffff"/>
<text x="20" y="30" font-size="18" font-weight="bold" fill="#111">Cisco IOS-XE Upgrade (RESTCONF) — what it does</text>
<rect x="555" y="39" width="380" height="146" rx="6" ry="6" fill="#fbfbfb" stroke="#bbb" stroke-width="1.5"/>
<text x="745" y="54" text-anchor="middle" font-family="Helvetica,Arial,sans-serif" font-size="10" fill="#333"><tspan x="745" dy="0">Legend</tspan><tspan x="745" dy="13">numbers = the phases (see the README)</tspan><tspan x="745" dy="13">diamonds = decisions; white rounded boxes to</tspan><tspan x="745" dy="13">the right = opt-in steps — the flow continues</tspan><tspan x="745" dy="13">down and rejoins the spine either way</tspan><tspan x="745" dy="13">dashed = opt-in and once per RUN (the whole</tspan><tspan x="745" dy="13">batch), not per device</tspan><tspan x="745" dy="13">green = successful end state</tspan><tspan x="745" dy="13">red = this device stops here</tspan><tspan x="745" dy="13">Detailed gate-by-gate flow: docs/upgrade-flow.svg</tspan></text>
<path d="M 340 104 L 340 150" fill="none" stroke="#555" stroke-width="1.5" stroke-dasharray="7 5" marker-end="url(#arrow)"/>
<path d="M 340 222 L 340 263" fill="none" stroke="#555" stroke-width="1.5" stroke-dasharray="7 5" marker-end="url(#arrow)"/>
<path d="M 340 325 L 340 371" fill="none" stroke="#555" stroke-width="1.5" marker-end="url(#arrow)"/>
<path d="M 340 433 L 340 468" fill="none" stroke="#555" stroke-width="1.5" marker-end="url(#arrow)"/>
<path d="M 340 552 L 340 615" fill="none" stroke="#555" stroke-width="1.5" marker-end="url(#arrow)"/>
<rect x="346" y="574" width="21" height="18" rx="3" fill="#ffffff" fill-opacity="0.85" stroke="none"/><text x="356" y="588" text-anchor="middle" font-family="Helvetica,Arial,sans-serif" font-size="11" fill="#333"><tspan x="356" dy="0">No</tspan></text>
<path d="M 340 677 L 340 712" fill="none" stroke="#555" stroke-width="1.5" marker-end="url(#arrow)"/>
<path d="M 340 796 L 340 831" fill="none" stroke="#555" stroke-width="1.5" marker-end="url(#arrow)"/>
<rect x="346" y="804" width="21" height="18" rx="3" fill="#ffffff" fill-opacity="0.85" stroke="none"/><text x="356" y="818" text-anchor="middle" font-family="Helvetica,Arial,sans-serif" font-size="11" fill="#333"><tspan x="356" dy="0">No</tspan></text>
<path d="M 340 893 L 340 928" fill="none" stroke="#555" stroke-width="1.5" marker-end="url(#arrow)"/>
<path d="M 340 1012 L 340 1047" fill="none" stroke="#555" stroke-width="1.5" marker-end="url(#arrow)"/>
<rect x="346" y="1020" width="21" height="18" rx="3" fill="#ffffff" fill-opacity="0.85" stroke="none"/><text x="356" y="1034" text-anchor="middle" font-family="Helvetica,Arial,sans-serif" font-size="11" fill="#333"><tspan x="356" dy="0">No</tspan></text>
<path d="M 340 1109 L 340 1144" fill="none" stroke="#555" stroke-width="1.5" marker-end="url(#arrow)"/>
<path d="M 340 1228 L 340 1252" fill="none" stroke="#555" stroke-width="1.5" marker-end="url(#arrow)"/>
<rect x="346" y="1231" width="21" height="18" rx="3" fill="#ffffff" fill-opacity="0.85" stroke="none"/><text x="356" y="1244" text-anchor="middle" font-family="Helvetica,Arial,sans-serif" font-size="11" fill="#333"><tspan x="356" dy="0">No</tspan></text>
<path d="M 340 1336 L 340 1388" fill="none" stroke="#555" stroke-width="1.5" marker-end="url(#arrow)"/>
<rect x="346" y="1353" width="21" height="18" rx="3" fill="#ffffff" fill-opacity="0.85" stroke="none"/><text x="356" y="1366" text-anchor="middle" font-family="Helvetica,Arial,sans-serif" font-size="11" fill="#333"><tspan x="356" dy="0">No</tspan></text>
<path d="M 340 1472 L 340 1535" fill="none" stroke="#555" stroke-width="1.5" marker-end="url(#arrow)"/>
<rect x="346" y="1494" width="21" height="18" rx="3" fill="#ffffff" fill-opacity="0.85" stroke="none"/><text x="356" y="1508" text-anchor="middle" font-family="Helvetica,Arial,sans-serif" font-size="11" fill="#333"><tspan x="356" dy="0">No</tspan></text>
<path d="M 340 1597 L 340 1632" fill="none" stroke="#555" stroke-width="1.5" marker-end="url(#arrow)"/>
<path d="M 340 1716 L 340 1751" fill="none" stroke="#555" stroke-width="1.5" marker-end="url(#arrow)"/>
<rect x="342" y="1724" width="28" height="18" rx="3" fill="#ffffff" fill-opacity="0.85" stroke="none"/><text x="356" y="1738" text-anchor="middle" font-family="Helvetica,Arial,sans-serif" font-size="11" fill="#333"><tspan x="356" dy="0">Yes</tspan></text>
<path d="M 340 1813 L 340 1859" fill="none" stroke="#555" stroke-width="1.5" marker-end="url(#arrow)"/>
<path d="M 340 1921 L 340 1956" fill="none" stroke="#555" stroke-width="1.5" marker-end="url(#arrow)"/>
<path d="M 340 2040 L 340 2092" fill="none" stroke="#555" stroke-width="1.5" marker-end="url(#arrow)"/>
<rect x="346" y="2057" width="21" height="18" rx="3" fill="#ffffff" fill-opacity="0.85" stroke="none"/><text x="356" y="2070" text-anchor="middle" font-family="Helvetica,Arial,sans-serif" font-size="11" fill="#333"><tspan x="356" dy="0">No</tspan></text>
<path d="M 340 2176 L 340 2228" fill="none" stroke="#555" stroke-width="1.5" marker-end="url(#arrow)"/>
<rect x="346" y="2193" width="21" height="18" rx="3" fill="#ffffff" fill-opacity="0.85" stroke="none"/><text x="356" y="2206" text-anchor="middle" font-family="Helvetica,Arial,sans-serif" font-size="11" fill="#333"><tspan x="356" dy="0">No</tspan></text>
<path d="M 340 2312 L 340 2380" fill="none" stroke="#555" stroke-width="1.5" marker-end="url(#arrow)"/>
<rect x="346" y="2337" width="21" height="18" rx="3" fill="#ffffff" fill-opacity="0.85" stroke="none"/><text x="356" y="2350" text-anchor="middle" font-family="Helvetica,Arial,sans-serif" font-size="11" fill="#333"><tspan x="356" dy="0">No</tspan></text>
<path d="M 340 2432 L 340 2478" fill="none" stroke="#555" stroke-width="1.5" stroke-dasharray="7 5" marker-end="url(#arrow)"/>
<path d="M 465 510 L 580 510" fill="none" stroke="#555" stroke-width="1.5" marker-end="url(#arrow)"/>
<rect x="509" y="491" width="28" height="18" rx="3" fill="#ffffff" fill-opacity="0.85" stroke="none"/><text x="522.5" y="504" text-anchor="middle" font-family="Helvetica,Arial,sans-serif" font-size="11" fill="#333"><tspan x="522.5" dy="0">Yes</tspan></text>
<rect x="580" y="478" width="320" height="64" rx="22" ry="22" fill="#FFFFFF" stroke="#5B6B7B" stroke-width="1.5"/>
<text x="740.0" y="496" text-anchor="middle" font-family="Helvetica,Arial,sans-serif" font-size="11" fill="#1a1a1a"><tspan x="740.0" dy="0">Reclaim flash up front (install remove</tspan><tspan x="740.0" dy="14">inactive; never in a dry-run) before the</tspan><tspan x="740.0" dy="14">free-space gate evaluates what&#x27;s left</tspan></text>
<path d="M 740 542 L 740 606 L 340 606" fill="none" stroke="#555" stroke-width="1.5" marker-end="url(#arrow)"/>
<path d="M 465 754 L 580 754" fill="none" stroke="#2E7D32" stroke-width="1.5" marker-end="url(#arrow)"/>
<rect x="509" y="735" width="28" height="18" rx="3" fill="#ffffff" fill-opacity="0.85" stroke="none"/><text x="522.5" y="748" text-anchor="middle" font-family="Helvetica,Arial,sans-serif" font-size="11" fill="#2E7D32"><tspan x="522.5" dy="0">Yes</tspan></text>
<rect x="580" y="722" width="320" height="64" rx="22" ry="22" fill="#D5E8D4" stroke="#2E7D32" stroke-width="1.5"/>
<text x="740.0" y="747" text-anchor="middle" font-family="Helvetica,Arial,sans-serif" font-size="11" font-weight="bold" fill="#1b5e20"><tspan x="740.0" dy="0">DONE: Dry-run — reports what</tspan><tspan x="740.0" dy="14">WOULD happen; no changes made</tspan></text>
<path d="M 465 970 L 580 970" fill="none" stroke="#2E7D32" stroke-width="1.5" marker-end="url(#arrow)"/>
<rect x="509" y="951" width="28" height="18" rx="3" fill="#ffffff" fill-opacity="0.85" stroke="none"/><text x="522.5" y="964" text-anchor="middle" font-family="Helvetica,Arial,sans-serif" font-size="11" fill="#2E7D32"><tspan x="522.5" dy="0">Yes</tspan></text>
<rect x="580" y="938" width="320" height="64" rx="22" ry="22" fill="#D5E8D4" stroke="#2E7D32" stroke-width="1.5"/>
<text x="740.0" y="963" text-anchor="middle" font-family="Helvetica,Arial,sans-serif" font-size="11" font-weight="bold" fill="#1b5e20"><tspan x="740.0" dy="0">DONE: Staged (Step 1) — image</tspan><tspan x="740.0" dy="14">copied to flash; nothing else</tspan></text>
<path d="M 465 1186 L 580 1186" fill="none" stroke="#2E7D32" stroke-width="1.5" marker-end="url(#arrow)"/>
<rect x="509" y="1167" width="28" height="18" rx="3" fill="#ffffff" fill-opacity="0.85" stroke="none"/><text x="522.5" y="1180" text-anchor="middle" font-family="Helvetica,Arial,sans-serif" font-size="11" fill="#2E7D32"><tspan x="522.5" dy="0">Yes</tspan></text>
<rect x="580" y="1154" width="320" height="64" rx="22" ry="22" fill="#D5E8D4" stroke="#2E7D32" stroke-width="1.5"/>
<text x="740.0" y="1179" text-anchor="middle" font-family="Helvetica,Arial,sans-serif" font-size="11" font-weight="bold" fill="#1b5e20"><tspan x="740.0" dy="0">DONE: Staged (Steps 1 &amp; 2) — added</tspan><tspan x="740.0" dy="14">&amp; marked for activation; not reloaded</tspan></text>
<path d="M 465 1294 L 580 1294" fill="none" stroke="#555" stroke-width="1.5" marker-end="url(#arrow)"/>
<rect x="509" y="1275" width="28" height="18" rx="3" fill="#ffffff" fill-opacity="0.85" stroke="none"/><text x="522.5" y="1288" text-anchor="middle" font-family="Helvetica,Arial,sans-serif" font-size="11" fill="#333"><tspan x="522.5" dy="0">Yes</tspan></text>
<rect x="580" y="1262" width="320" height="64" rx="22" ry="22" fill="#FFFFFF" stroke="#5B6B7B" stroke-width="1.5"/>
<text x="740.0" y="1280" text-anchor="middle" font-family="Helvetica,Arial,sans-serif" font-size="11" fill="#1a1a1a"><tspan x="740.0" dy="0">Pre-test (8a): capture the health baseline</tspan><tspan x="740.0" dy="14">(ports · CDP/LLDP · environment · reboot</tspan><tspan x="740.0" dy="14">reason; a failed read aborts BEFORE activate)</tspan></text>
<path d="M 740 1326 L 740 1379 L 340 1379" fill="none" stroke="#555" stroke-width="1.5" marker-end="url(#arrow)"/>
<path d="M 465 1430 L 580 1430" fill="none" stroke="#555" stroke-width="1.5" marker-end="url(#arrow)"/>
<rect x="509" y="1411" width="28" height="18" rx="3" fill="#ffffff" fill-opacity="0.85" stroke="none"/><text x="522.5" y="1424" text-anchor="middle" font-family="Helvetica,Arial,sans-serif" font-size="11" fill="#333"><tspan x="522.5" dy="0">Yes</tspan></text>
<rect x="580" y="1398" width="320" height="64" rx="22" ry="22" fill="#FFFFFF" stroke="#5B6B7B" stroke-width="1.5"/>
<text x="740.0" y="1416" text-anchor="middle" font-family="Helvetica,Arial,sans-serif" font-size="11" fill="#1a1a1a"><tspan x="740.0" dy="0">Save the running config (the activation</tspan><tspan x="740.0" dy="14">reload never prompts — unsaved changes</tspan><tspan x="740.0" dy="14">would be lost); the device&#x27;s RPC result verifies</tspan></text>
<path d="M 740 1462 L 740 1526 L 340 1526" fill="none" stroke="#555" stroke-width="1.5" marker-end="url(#arrow)"/>
<path d="M 465 1674 L 580 1674" fill="none" stroke="#B85450" stroke-width="1.5" marker-end="url(#arrow)"/>
<rect x="512" y="1655" width="21" height="18" rx="3" fill="#ffffff" fill-opacity="0.85" stroke="none"/><text x="522.5" y="1668" text-anchor="middle" font-family="Helvetica,Arial,sans-serif" font-size="11" fill="#B85450"><tspan x="522.5" dy="0">No</tspan></text>
<rect x="580" y="1642" width="320" height="64" rx="22" ry="22" fill="#F8CECC" stroke="#B85450" stroke-width="1.5"/>
<text x="740.0" y="1667" text-anchor="middle" font-family="Helvetica,Arial,sans-serif" font-size="11" font-weight="bold" fill="#8a1f1f"><tspan x="740.0" dy="0">Auto-rollback to the previous</tspan><tspan x="740.0" dy="14">image — NOT committed</tspan></text>
<path d="M 465 1998 L 580 1998" fill="none" stroke="#555" stroke-width="1.5" marker-end="url(#arrow)"/>
<rect x="509" y="1979" width="28" height="18" rx="3" fill="#ffffff" fill-opacity="0.85" stroke="none"/><text x="522.5" y="1992" text-anchor="middle" font-family="Helvetica,Arial,sans-serif" font-size="11" fill="#333"><tspan x="522.5" dy="0">Yes</tspan></text>
<rect x="580" y="1966" width="320" height="64" rx="22" ry="22" fill="#FFFFFF" stroke="#5B6B7B" stroke-width="1.5"/>
<text x="740.0" y="1984" text-anchor="middle" font-family="Helvetica,Arial,sans-serif" font-size="11" fill="#1a1a1a"><tspan x="740.0" dy="0">Save again on the NEW OS — normalizes</tspan><tspan x="740.0" dy="14">startup to the new version&#x27;s rendering</tspan><tspan x="740.0" dy="14">(soak trade-off in the README; default off)</tspan></text>
<path d="M 740 2030 L 740 2083 L 340 2083" fill="none" stroke="#555" stroke-width="1.5" marker-end="url(#arrow)"/>
<path d="M 465 2134 L 580 2134" fill="none" stroke="#555" stroke-width="1.5" marker-end="url(#arrow)"/>
<rect x="509" y="2115" width="28" height="18" rx="3" fill="#ffffff" fill-opacity="0.85" stroke="none"/><text x="522.5" y="2128" text-anchor="middle" font-family="Helvetica,Arial,sans-serif" font-size="11" fill="#333"><tspan x="522.5" dy="0">Yes</tspan></text>
<rect x="580" y="2102" width="320" height="64" rx="22" ry="22" fill="#FFFFFF" stroke="#5B6B7B" stroke-width="1.5"/>
<text x="740.0" y="2120" text-anchor="middle" font-family="Helvetica,Arial,sans-serif" font-size="11" fill="#1a1a1a"><tspan x="740.0" dy="0">install remove inactive — reclaim flash</tspan><tspan x="740.0" dy="14">space (old packages &amp; prior images);</tspan><tspan x="740.0" dy="14">gated &amp; tracked like every engine write</tspan></text>
<path d="M 740 2166 L 740 2219 L 340 2219" fill="none" stroke="#555" stroke-width="1.5" marker-end="url(#arrow)"/>
<path d="M 465 2270 L 580 2270" fill="none" stroke="#555" stroke-width="1.5" marker-end="url(#arrow)"/>
<rect x="509" y="2251" width="28" height="18" rx="3" fill="#ffffff" fill-opacity="0.85" stroke="none"/><text x="522.5" y="2264" text-anchor="middle" font-family="Helvetica,Arial,sans-serif" font-size="11" fill="#333"><tspan x="522.5" dy="0">Yes</tspan></text>
<rect x="580" y="2238" width="320" height="64" rx="22" ry="22" fill="#FFFFFF" stroke="#5B6B7B" stroke-width="1.5"/>
<text x="740.0" y="2256" text-anchor="middle" font-family="Helvetica,Arial,sans-serif" font-size="11" fill="#1a1a1a"><tspan x="740.0" dy="0">Post-test (8b): compare vs the baseline</tspan><tspan x="740.0" dy="14">(everything up/present before must return;</tspan><tspan x="740.0" dy="14">convergence-aware ~10 min; report-only)</tspan></text>
<path d="M 740 2302 L 740 2371 L 340 2371" fill="none" stroke="#555" stroke-width="1.5" marker-end="url(#arrow)"/>
<rect x="160" y="52" width="360" height="52" rx="24" ry="24" fill="#DAE8FC" stroke="#6C8EBF" stroke-width="1.5"/>
<text x="340" y="70" text-anchor="middle" font-family="Helvetica,Arial,sans-serif" font-size="12" font-weight="bold" fill="#1b3a6b"><tspan x="340" dy="0">Select devices + target version</tspan><tspan x="340" dy="15">(Nautobot → Jobs)</tspan></text>
<rect x="140" y="150" width="400" height="72" rx="10" ry="10" fill="#FFFFFF" stroke="#5B6B7B" stroke-width="1.5" stroke-dasharray="7 5"/>
<text x="340" y="165" text-anchor="middle" font-family="Helvetica,Arial,sans-serif" font-size="11" fill="#1a1a1a"><tspan x="340" dy="0">Opt-in, once per RUN: Golden Config backup of</tspan><tspan x="340" dy="14">every target device BEFORE any upgrade starts</tspan><tspan x="340" dy="14">(fail-closed: can&#x27;t back up → nothing is touched;</tspan><tspan x="340" dy="14">a dry run only reports it)</tspan></text>
<rect x="150" y="263" width="380" height="62" rx="6" ry="6" fill="#FFFFFF" stroke="#5B6B7B" stroke-width="1.5"/>
<text x="340" y="287" text-anchor="middle" font-family="Helvetica,Arial,sans-serif" font-size="11" fill="#1a1a1a"><tspan x="340" dy="0">Connect &amp; authenticate</tspan><tspan x="340" dy="14">(RESTCONF over HTTPS, creds from Nautobot Secrets)</tspan></text>
<rect x="150" y="371" width="380" height="62" rx="6" ry="6" fill="#FFFFFF" stroke="#5B6B7B" stroke-width="1.5"/>
<text x="340" y="395" text-anchor="middle" font-family="Helvetica,Arial,sans-serif" font-size="11" fill="#1a1a1a"><tspan x="340" dy="0">Pre-flight gates</tspan><tspan x="340" dy="14">≥ 17.9.1 · install mode · image resolved</tspan></text>
<polygon points="340,468.0 465.0,510 340,552.0 215.0,510" fill="#E8EEF6" stroke="#3C6CA8" stroke-width="1.5"/>
<text x="340" y="503" text-anchor="middle" font-family="Helvetica,Arial,sans-serif" font-size="11" font-weight="bold" fill="#13335c"><tspan x="340" dy="0">Clean device first</tspan><tspan x="340" dy="14">opted in?</tspan></text>
<rect x="150" y="615" width="380" height="62" rx="6" ry="6" fill="#FFFFFF" stroke="#5B6B7B" stroke-width="1.5"/>
<text x="340" y="639" text-anchor="middle" font-family="Helvetica,Arial,sans-serif" font-size="11" fill="#1a1a1a"><tspan x="340" dy="0">Free-space gate</tspan><tspan x="340" dy="14">(on the cleaned flash when cleaning ran)</tspan></text>
<polygon points="340,712.0 465.0,754 340,796.0 215.0,754" fill="#E8EEF6" stroke="#3C6CA8" stroke-width="1.5"/>
<text x="340" y="754" text-anchor="middle" font-family="Helvetica,Arial,sans-serif" font-size="11" font-weight="bold" fill="#13335c"><tspan x="340" dy="0">Dry-run?</tspan></text>
<rect x="150" y="831" width="380" height="62" rx="6" ry="6" fill="#FFFFFF" stroke="#5B6B7B" stroke-width="1.5"/>
<text x="340" y="855" text-anchor="middle" font-family="Helvetica,Arial,sans-serif" font-size="11" fill="#1a1a1a"><tspan x="340" dy="0">Copy image + verify exact size</tspan><tspan x="340" dy="14">(skipped if the file is already on flash)</tspan></text>
<polygon points="340,928.0 465.0,970 340,1012.0 215.0,970" fill="#E8EEF6" stroke="#3C6CA8" stroke-width="1.5"/>
<text x="340" y="963" text-anchor="middle" font-family="Helvetica,Arial,sans-serif" font-size="11" font-weight="bold" fill="#13335c"><tspan x="340" dy="0">Run scope =</tspan><tspan x="340" dy="14">Step 1 (copy) only?</tspan></text>
<rect x="150" y="1047" width="380" height="62" rx="6" ry="6" fill="#FFFFFF" stroke="#5B6B7B" stroke-width="1.5"/>
<text x="340" y="1071" text-anchor="middle" font-family="Helvetica,Arial,sans-serif" font-size="11" fill="#1a1a1a"><tspan x="340" dy="0">install add — extract &amp; stage the image</tspan><tspan x="340" dy="14">(gate → track via the device&#x27;s ledger)</tspan></text>
<polygon points="340,1144.0 465.0,1186 340,1228.0 215.0,1186" fill="#E8EEF6" stroke="#3C6CA8" stroke-width="1.5"/>
<text x="340" y="1172" text-anchor="middle" font-family="Helvetica,Arial,sans-serif" font-size="11" font-weight="bold" fill="#13335c"><tspan x="340" dy="0">Run scope =</tspan><tspan x="340" dy="14">Steps 1 &amp; 2</tspan><tspan x="340" dy="14">(copy + prep)?</tspan></text>
<polygon points="340,1252.0 465.0,1294 340,1336.0 215.0,1294" fill="#E8EEF6" stroke="#3C6CA8" stroke-width="1.5"/>
<text x="340" y="1287" text-anchor="middle" font-family="Helvetica,Arial,sans-serif" font-size="11" font-weight="bold" fill="#13335c"><tspan x="340" dy="0">Health checks</tspan><tspan x="340" dy="14">opted in?</tspan></text>
<polygon points="340,1388.0 465.0,1430 340,1472.0 215.0,1430" fill="#E8EEF6" stroke="#3C6CA8" stroke-width="1.5"/>
<text x="340" y="1423" text-anchor="middle" font-family="Helvetica,Arial,sans-serif" font-size="11" font-weight="bold" fill="#13335c"><tspan x="340" dy="0">Save config before</tspan><tspan x="340" dy="14">reload opted in?</tspan></text>
<rect x="150" y="1535" width="380" height="62" rx="6" ry="6" fill="#FFFFFF" stroke="#5B6B7B" stroke-width="1.5"/>
<text x="340" y="1559" text-anchor="middle" font-family="Helvetica,Arial,sans-serif" font-size="11" fill="#1a1a1a"><tspan x="340" dy="0">Activate (non-ISSU) → reload</tspan><tspan x="340" dy="14">(gate → track via the device&#x27;s ledger)</tspan></text>
<polygon points="340,1632.0 465.0,1674 340,1716.0 215.0,1674" fill="#E8EEF6" stroke="#3C6CA8" stroke-width="1.5"/>
<text x="340" y="1667" text-anchor="middle" font-family="Helvetica,Arial,sans-serif" font-size="11" font-weight="bold" fill="#13335c"><tspan x="340" dy="0">Booted the target</tspan><tspan x="340" dy="14">&amp; came back healthy?</tspan></text>
<rect x="150" y="1751" width="380" height="62" rx="6" ry="6" fill="#FFFFFF" stroke="#5B6B7B" stroke-width="1.5"/>
<text x="340" y="1775" text-anchor="middle" font-family="Helvetica,Arial,sans-serif" font-size="11" fill="#1a1a1a"><tspan x="340" dy="0">install commit</tspan><tspan x="340" dy="14">(gate → track via the device&#x27;s ledger)</tspan></text>
<rect x="150" y="1859" width="380" height="62" rx="6" ry="6" fill="#FFFFFF" stroke="#5B6B7B" stroke-width="1.5"/>
<text x="340" y="1883" text-anchor="middle" font-family="Helvetica,Arial,sans-serif" font-size="11" fill="#1a1a1a"><tspan x="340" dy="0">Sync Nautobot software version</tspan><tspan x="340" dy="14">(the device record now shows the new OS)</tspan></text>
<polygon points="340,1956.0 465.0,1998 340,2040.0 215.0,1998" fill="#E8EEF6" stroke="#3C6CA8" stroke-width="1.5"/>
<text x="340" y="1991" text-anchor="middle" font-family="Helvetica,Arial,sans-serif" font-size="11" font-weight="bold" fill="#13335c"><tspan x="340" dy="0">Save config after</tspan><tspan x="340" dy="14">commit opted in?</tspan></text>
<polygon points="340,2092.0 465.0,2134 340,2176.0 215.0,2134" fill="#E8EEF6" stroke="#3C6CA8" stroke-width="1.5"/>
<text x="340" y="2127" text-anchor="middle" font-family="Helvetica,Arial,sans-serif" font-size="11" font-weight="bold" fill="#13335c"><tspan x="340" dy="0">Remove inactive</tspan><tspan x="340" dy="14">opted in?</tspan></text>
<polygon points="340,2228.0 465.0,2270 340,2312.0 215.0,2270" fill="#E8EEF6" stroke="#3C6CA8" stroke-width="1.5"/>
<text x="340" y="2263" text-anchor="middle" font-family="Helvetica,Arial,sans-serif" font-size="11" font-weight="bold" fill="#13335c"><tspan x="340" dy="0">Health checks</tspan><tspan x="340" dy="14">opted in?</tspan></text>
<rect x="180" y="2380" width="320" height="52" rx="24" ry="24" fill="#D5E8D4" stroke="#2E7D32" stroke-width="1.5"/>
<text x="340" y="2406" text-anchor="middle" font-family="Helvetica,Arial,sans-serif" font-size="12" font-weight="bold" fill="#14532d"><tspan x="340" dy="0">DONE: Upgraded &amp; committed ✓</tspan></text>
<rect x="140" y="2478" width="400" height="72" rx="10" ry="10" fill="#FFFFFF" stroke="#5B6B7B" stroke-width="1.5" stroke-dasharray="7 5"/>
<text x="340" y="2500" text-anchor="middle" font-family="Helvetica,Arial,sans-serif" font-size="11" fill="#1a1a1a"><tspan x="340" dy="0">Opt-in, once per RUN: Golden Config backup</tspan><tspan x="340" dy="14">again AFTER all devices finish (runs even if</tspan><tspan x="340" dy="14">some failed; warn-only — never un-succeeds)</tspan></text>
<rect x="102" y="278" width="32" height="32" rx="16.0" ry="16.0" fill="#EDE3F6" stroke="#8E63B5" stroke-width="1.5"/><text x="118.0" y="300" text-anchor="middle" font-family="Helvetica,Arial,sans-serif" font-size="17" font-weight="bold" fill="#4A2A7A"><tspan x="118.0" dy="0">1</tspan></text>
<rect x="102" y="386" width="32" height="32" rx="16.0" ry="16.0" fill="#EDE3F6" stroke="#8E63B5" stroke-width="1.5"/><text x="118.0" y="408" text-anchor="middle" font-family="Helvetica,Arial,sans-serif" font-size="17" font-weight="bold" fill="#4A2A7A"><tspan x="118.0" dy="0">2</tspan></text>
<rect x="102" y="846" width="32" height="32" rx="16.0" ry="16.0" fill="#EDE3F6" stroke="#8E63B5" stroke-width="1.5"/><text x="118.0" y="868" text-anchor="middle" font-family="Helvetica,Arial,sans-serif" font-size="17" font-weight="bold" fill="#4A2A7A"><tspan x="118.0" dy="0">3</tspan></text>
<rect x="102" y="1062" width="32" height="32" rx="16.0" ry="16.0" fill="#EDE3F6" stroke="#8E63B5" stroke-width="1.5"/><text x="118.0" y="1084" text-anchor="middle" font-family="Helvetica,Arial,sans-serif" font-size="17" font-weight="bold" fill="#4A2A7A"><tspan x="118.0" dy="0">4</tspan></text>
<rect x="102" y="1550" width="32" height="32" rx="16.0" ry="16.0" fill="#EDE3F6" stroke="#8E63B5" stroke-width="1.5"/><text x="118.0" y="1572" text-anchor="middle" font-family="Helvetica,Arial,sans-serif" font-size="17" font-weight="bold" fill="#4A2A7A"><tspan x="118.0" dy="0">5</tspan></text>
<rect x="102" y="1766" width="32" height="32" rx="16.0" ry="16.0" fill="#EDE3F6" stroke="#8E63B5" stroke-width="1.5"/><text x="118.0" y="1788" text-anchor="middle" font-family="Helvetica,Arial,sans-serif" font-size="17" font-weight="bold" fill="#4A2A7A"><tspan x="118.0" dy="0">6</tspan></text>
<rect x="102" y="1874" width="32" height="32" rx="16.0" ry="16.0" fill="#EDE3F6" stroke="#8E63B5" stroke-width="1.5"/><text x="118.0" y="1896" text-anchor="middle" font-family="Helvetica,Arial,sans-serif" font-size="17" font-weight="bold" fill="#4A2A7A"><tspan x="118.0" dy="0">7</tspan></text>
<rect x="96" y="1278" width="38" height="32" rx="16.0" ry="16.0" fill="#EDE3F6" stroke="#8E63B5" stroke-width="1.5"/><text x="115.0" y="1300" text-anchor="middle" font-family="Helvetica,Arial,sans-serif" font-size="17" font-weight="bold" fill="#4A2A7A"><tspan x="115.0" dy="0">8a</tspan></text>
<rect x="96" y="2254" width="38" height="32" rx="16.0" ry="16.0" fill="#EDE3F6" stroke="#8E63B5" stroke-width="1.5"/><text x="115.0" y="2276" text-anchor="middle" font-family="Helvetica,Arial,sans-serif" font-size="17" font-weight="bold" fill="#4A2A7A"><tspan x="115.0" dy="0">8b</tspan></text>
</svg>