<svg xmlns="http://www.w3.org/2000/svg" viewBox="0 0 980 3592" width="980" height="3592" font-family="Helvetica,Arial,sans-serif">
<defs><marker id="arrow" markerWidth="10" markerHeight="10" refX="8" refY="3" orient="auto" markerUnits="strokeWidth"><path d="M0,0 L8,3 L0,6 z" fill="#555"/></marker></defs>
<rect x="0" y="0" width="980" height="3592" fill="#ffffff"/>
<text x="20" y="28" font-size="18" font-weight="bold" fill="#111">Cisco IOS-XE Upgrade (RESTCONF) — per-device flow</text>
<rect x="570" y="38" width="400" height="96" rx="6" ry="6" fill="#fbfbfb" stroke="#bbb" stroke-width="1.5"/>
<text x="770" y="66" text-anchor="middle" font-family="Helvetica,Arial,sans-serif" font-size="10.5" fill="#333"><tspan x="770" dy="0">Legend:  diamonds = decisions</tspan><tspan x="770" dy="14">· red = ABORT this device (logs the reason, continues with the next device; ANY abort marks the whole Job Result FAILED at the end)</tspan><tspan x="770" dy="14">· amber = warn &amp; continue</tspan><tspan x="770" dy="14">· green = successful end state.</tspan></text>
<path d="M 400 81 L 400 124" fill="none" stroke="#555" stroke-width="1.5" marker-end="url(#arrow)"/>
<path d="M 400 180 L 400 206" fill="none" stroke="#555" stroke-width="1.5" marker-end="url(#arrow)"/>
<path d="M 400 290 L 400 316" fill="none" stroke="#555" stroke-width="1.5" marker-end="url(#arrow)"/>
<path d="M 400 372 L 400 398" fill="none" stroke="#555" stroke-width="1.5" marker-end="url(#arrow)"/>
<path d="M 400 482 L 400 508" fill="none" stroke="#555" stroke-width="1.5" marker-end="url(#arrow)"/>
<path d="M 400 564 L 400 590" fill="none" stroke="#555" stroke-width="1.5" marker-end="url(#arrow)"/>
<path d="M 400 674 L 400 700" fill="none" stroke="#555" stroke-width="1.5" marker-end="url(#arrow)"/>
<path d="M 400 756 L 400 782" fill="none" stroke="#555" stroke-width="1.5" marker-end="url(#arrow)"/>
<path d="M 400 866 L 400 878" fill="none" stroke="#555" stroke-width="1.5" marker-end="url(#arrow)"/>
<rect x="406" y="863" width="21" height="18" rx="3" fill="#ffffff" fill-opacity="0.85" stroke="none"/><text x="416" y="876" text-anchor="middle" font-family="Helvetica,Arial,sans-serif" font-size="11" fill="#333"><tspan x="416" dy="0">No</tspan></text>
<path d="M 400 962 L 400 988" fill="none" stroke="#555" stroke-width="1.5" marker-end="url(#arrow)"/>
<rect x="402" y="966" width="28" height="18" rx="3" fill="#ffffff" fill-opacity="0.85" stroke="none"/><text x="416" y="979" text-anchor="middle" font-family="Helvetica,Arial,sans-serif" font-size="11" fill="#333"><tspan x="416" dy="0">Yes</tspan></text>
<path d="M 400 1044 L 400 1070" fill="none" stroke="#555" stroke-width="1.5" marker-end="url(#arrow)"/>
<path d="M 400 1154 L 400 1180" fill="none" stroke="#555" stroke-width="1.5" marker-end="url(#arrow)"/>
<rect x="402" y="1158" width="28" height="18" rx="3" fill="#ffffff" fill-opacity="0.85" stroke="none"/><text x="416" y="1171" text-anchor="middle" font-family="Helvetica,Arial,sans-serif" font-size="11" fill="#333"><tspan x="416" dy="0">Yes</tspan></text>
<path d="M 400 1236 L 400 1262" fill="none" stroke="#555" stroke-width="1.5" marker-end="url(#arrow)"/>
<path d="M 400 1346 L 400 1372" fill="none" stroke="#555" stroke-width="1.5" marker-end="url(#arrow)"/>
<rect x="402" y="1350" width="28" height="18" rx="3" fill="#ffffff" fill-opacity="0.85" stroke="none"/><text x="416" y="1363" text-anchor="middle" font-family="Helvetica,Arial,sans-serif" font-size="11" fill="#333"><tspan x="416" dy="0">Yes</tspan></text>
<path d="M 400 1428 L 400 1454" fill="none" stroke="#555" stroke-width="1.5" marker-end="url(#arrow)"/>
<path d="M 400 1538 L 400 1550" fill="none" stroke="#555" stroke-width="1.5" marker-end="url(#arrow)"/>
<rect x="402" y="1535" width="28" height="18" rx="3" fill="#ffffff" fill-opacity="0.85" stroke="none"/><text x="416" y="1548" text-anchor="middle" font-family="Helvetica,Arial,sans-serif" font-size="11" fill="#333"><tspan x="416" dy="0">Yes</tspan></text>
<path d="M 400 1634 L 400 1646" fill="none" stroke="#555" stroke-width="1.5" marker-end="url(#arrow)"/>
<rect x="406" y="1631" width="21" height="18" rx="3" fill="#ffffff" fill-opacity="0.85" stroke="none"/><text x="416" y="1644" text-anchor="middle" font-family="Helvetica,Arial,sans-serif" font-size="11" fill="#333"><tspan x="416" dy="0">No</tspan></text>
<path d="M 400 1730 L 400 1756" fill="none" stroke="#555" stroke-width="1.5" marker-end="url(#arrow)"/>
<rect x="406" y="1734" width="21" height="18" rx="3" fill="#ffffff" fill-opacity="0.85" stroke="none"/><text x="416" y="1747" text-anchor="middle" font-family="Helvetica,Arial,sans-serif" font-size="11" fill="#333"><tspan x="416" dy="0">No</tspan></text>
<path d="M 400 1812 L 400 1838" fill="none" stroke="#555" stroke-width="1.5" marker-end="url(#arrow)"/>
<path d="M 400 1922 L 400 1934" fill="none" stroke="#555" stroke-width="1.5" marker-end="url(#arrow)"/>
<rect x="396" y="1919" width="40" height="18" rx="3" fill="#ffffff" fill-opacity="0.85" stroke="none"/><text x="416" y="1932" text-anchor="middle" font-family="Helvetica,Arial,sans-serif" font-size="11" fill="#333"><tspan x="416" dy="0">match</tspan></text>
<path d="M 400 2018 L 400 2044" fill="none" stroke="#555" stroke-width="1.5" marker-end="url(#arrow)"/>
<rect x="360" y="2022" width="112" height="18" rx="3" fill="#ffffff" fill-opacity="0.85" stroke="none"/><text x="416" y="2035" text-anchor="middle" font-family="Helvetica,Arial,sans-serif" font-size="11" fill="#333"><tspan x="416" dy="0">full / stage-add</tspan></text>
<path d="M 400 2100 L 400 2140" fill="none" stroke="#555" stroke-width="1.5" marker-end="url(#arrow)"/>
<path d="M 400 2196 L 400 2222" fill="none" stroke="#555" stroke-width="1.5" marker-end="url(#arrow)"/>
<path d="M 400 2306 L 400 2332" fill="none" stroke="#555" stroke-width="1.5" marker-end="url(#arrow)"/>
<rect x="399" y="2310" width="34" height="18" rx="3" fill="#ffffff" fill-opacity="0.85" stroke="none"/><text x="416" y="2323" text-anchor="middle" font-family="Helvetica,Arial,sans-serif" font-size="11" fill="#333"><tspan x="416" dy="0">full</tspan></text>
<path d="M 400 2388 L 400 2428" fill="none" stroke="#555" stroke-width="1.5" marker-end="url(#arrow)"/>
<path d="M 400 2484 L 400 2510" fill="none" stroke="#555" stroke-width="1.5" marker-end="url(#arrow)"/>
<path d="M 400 2594 L 400 2620" fill="none" stroke="#555" stroke-width="1.5" marker-end="url(#arrow)"/>
<rect x="402" y="2598" width="28" height="18" rx="3" fill="#ffffff" fill-opacity="0.85" stroke="none"/><text x="416" y="2611" text-anchor="middle" font-family="Helvetica,Arial,sans-serif" font-size="11" fill="#333"><tspan x="416" dy="0">Yes</tspan></text>
<path d="M 400 2676 L 400 2702" fill="none" stroke="#555" stroke-width="1.5" marker-end="url(#arrow)"/>
<path d="M 400 2786 L 400 2798" fill="none" stroke="#555" stroke-width="1.5" marker-end="url(#arrow)"/>
<rect x="402" y="2783" width="28" height="18" rx="3" fill="#ffffff" fill-opacity="0.85" stroke="none"/><text x="416" y="2796" text-anchor="middle" font-family="Helvetica,Arial,sans-serif" font-size="11" fill="#333"><tspan x="416" dy="0">Yes</tspan></text>
<path d="M 400 2882 L 400 2908" fill="none" stroke="#555" stroke-width="1.5" marker-end="url(#arrow)"/>
<rect x="360" y="2886" width="112" height="18" rx="3" fill="#ffffff" fill-opacity="0.85" stroke="none"/><text x="416" y="2899" text-anchor="middle" font-family="Helvetica,Arial,sans-serif" font-size="11" fill="#333"><tspan x="416" dy="0">Yes / standalone</tspan></text>
<path d="M 400 2964 L 400 3004" fill="none" stroke="#555" stroke-width="1.5" marker-end="url(#arrow)"/>
<path d="M 400 3060 L 400 3086" fill="none" stroke="#555" stroke-width="1.5" marker-end="url(#arrow)"/>
<path d="M 400 3170 L 400 3196" fill="none" stroke="#555" stroke-width="1.5" marker-end="url(#arrow)"/>
<rect x="402" y="3174" width="28" height="18" rx="3" fill="#ffffff" fill-opacity="0.85" stroke="none"/><text x="416" y="3187" text-anchor="middle" font-family="Helvetica,Arial,sans-serif" font-size="11" fill="#333"><tspan x="416" dy="0">Yes</tspan></text>
<path d="M 400 3252 L 400 3278" fill="none" stroke="#555" stroke-width="1.5" marker-end="url(#arrow)"/>
<path d="M 400 3362 L 400 3388" fill="none" stroke="#555" stroke-width="1.5" marker-end="url(#arrow)"/>
<rect x="402" y="3366" width="28" height="18" rx="3" fill="#ffffff" fill-opacity="0.85" stroke="none"/><text x="416" y="3379" text-anchor="middle" font-family="Helvetica,Arial,sans-serif" font-size="11" fill="#333"><tspan x="416" dy="0">Yes</tspan></text>
<path d="M 400 3444 L 400 3485" fill="none" stroke="#555" stroke-width="1.5" marker-end="url(#arrow)"/>
<path d="M 275 3320 L 200 3320 L 200 3512 L 240 3512" fill="none" stroke="#555" stroke-width="1.5" marker-end="url(#arrow)"/>
<rect x="216" y="3407" width="21" height="18" rx="3" fill="#ffffff" fill-opacity="0.85" stroke="none"/><text x="226" y="3420" text-anchor="middle" font-family="Helvetica,Arial,sans-serif" font-size="11" fill="#333"><tspan x="226" dy="0">No</tspan></text>
<path d="M 525 248 L 600 248" fill="none" stroke="#B85450" stroke-width="1.5" marker-end="url(#arrow)"/>
<rect x="552" y="229" width="21" height="18" rx="3" fill="#ffffff" fill-opacity="0.85" stroke="none"/><text x="562.5" y="242" text-anchor="middle" font-family="Helvetica,Arial,sans-serif" font-size="11" fill="#B85450"><tspan x="562.5" dy="0">No</tspan></text>
<rect x="600" y="215" width="330" height="66" rx="6" ry="6" fill="#F8CECC" stroke="#B85450" stroke-width="1.5"/>
<text x="765.0" y="239" text-anchor="middle" font-family="Helvetica,Arial,sans-serif" font-size="11" font-weight="bold" fill="#8a1f1f"><tspan x="765.0" dy="0">ABORT</tspan></text>
<text x="765.0" y="257" text-anchor="middle" font-family="Helvetica,Arial,sans-serif" font-size="10.5" fill="#5b1414"><tspan x="765.0" dy="0">No primary IP set</tspan></text>
<path d="M 525 440 L 600 440" fill="none" stroke="#B85450" stroke-width="1.5" marker-end="url(#arrow)"/>
<rect x="552" y="421" width="21" height="18" rx="3" fill="#ffffff" fill-opacity="0.85" stroke="none"/><text x="562.5" y="434" text-anchor="middle" font-family="Helvetica,Arial,sans-serif" font-size="11" fill="#B85450"><tspan x="562.5" dy="0">No</tspan></text>
<rect x="600" y="407" width="330" height="66" rx="6" ry="6" fill="#F8CECC" stroke="#B85450" stroke-width="1.5"/>
<text x="765.0" y="431" text-anchor="middle" font-family="Helvetica,Arial,sans-serif" font-size="11" font-weight="bold" fill="#8a1f1f"><tspan x="765.0" dy="0">ABORT</tspan></text>
<text x="765.0" y="449" text-anchor="middle" font-family="Helvetica,Arial,sans-serif" font-size="10.5" fill="#5b1414"><tspan x="765.0" dy="0">No Secrets Group / secret missing</tspan></text>
<path d="M 525 632 L 600 632" fill="none" stroke="#B85450" stroke-width="1.5" marker-end="url(#arrow)"/>
<rect x="552" y="613" width="21" height="18" rx="3" fill="#ffffff" fill-opacity="0.85" stroke="none"/><text x="562.5" y="626" text-anchor="middle" font-family="Helvetica,Arial,sans-serif" font-size="11" fill="#B85450"><tspan x="562.5" dy="0">No</tspan></text>
<rect x="600" y="599" width="330" height="66" rx="6" ry="6" fill="#F8CECC" stroke="#B85450" stroke-width="1.5"/>
<text x="765.0" y="623" text-anchor="middle" font-family="Helvetica,Arial,sans-serif" font-size="11" font-weight="bold" fill="#8a1f1f"><tspan x="765.0" dy="0">ABORT</tspan></text>
<text x="765.0" y="634" text-anchor="middle" font-family="Helvetica,Arial,sans-serif" font-size="10.5" fill="#5b1414"><tspan x="765.0" dy="0">HTTP 401 auth / 403 privilege /</tspan><tspan x="765.0" dy="14">unreachable (RESTCONF disabled?)</tspan></text>
<path d="M 525 824 L 600 824" fill="none" stroke="#2E7D32" stroke-width="1.5" marker-end="url(#arrow)"/>
<rect x="549" y="805" width="28" height="18" rx="3" fill="#ffffff" fill-opacity="0.85" stroke="none"/><text x="562.5" y="818" text-anchor="middle" font-family="Helvetica,Arial,sans-serif" font-size="11" fill="#2E7D32"><tspan x="562.5" dy="0">Yes</tspan></text>
<rect x="600" y="796" width="330" height="56" rx="22" ry="22" fill="#D5E8D4" stroke="#2E7D32" stroke-width="1.5"/>
<text x="765.0" y="817" text-anchor="middle" font-family="Helvetica,Arial,sans-serif" font-size="11" font-weight="bold" fill="#1b5e20"><tspan x="765.0" dy="0">Already on target → no-op if committed;</tspan><tspan x="765.0" dy="14">else install commit (commit-to-be-safe)</tspan></text>
<path d="M 525 920 L 600 920" fill="none" stroke="#B85450" stroke-width="1.5" marker-end="url(#arrow)"/>
<rect x="552" y="901" width="21" height="18" rx="3" fill="#ffffff" fill-opacity="0.85" stroke="none"/><text x="562.5" y="914" text-anchor="middle" font-family="Helvetica,Arial,sans-serif" font-size="11" fill="#B85450"><tspan x="562.5" dy="0">No</tspan></text>
<rect x="600" y="887" width="330" height="66" rx="6" ry="6" fill="#F8CECC" stroke="#B85450" stroke-width="1.5"/>
<text x="765.0" y="911" text-anchor="middle" font-family="Helvetica,Arial,sans-serif" font-size="11" font-weight="bold" fill="#8a1f1f"><tspan x="765.0" dy="0">ABORT</tspan></text>
<text x="765.0" y="922" text-anchor="middle" font-family="Helvetica,Arial,sans-serif" font-size="10.5" fill="#5b1414"><tspan x="765.0" dy="0">Unknown version, or below the</tspan><tspan x="765.0" dy="14">17.9.1 support floor</tspan></text>
<path d="M 525 1112 L 600 1112" fill="none" stroke="#B85450" stroke-width="1.5" marker-end="url(#arrow)"/>
<rect x="474" y="1093" width="177" height="18" rx="3" fill="#ffffff" fill-opacity="0.85" stroke="none"/><text x="562.5" y="1099" text-anchor="middle" font-family="Helvetica,Arial,sans-serif" font-size="11" fill="#B85450"><tspan x="562.5" dy="0">bundle / bad /</tspan><tspan x="562.5" dy="14">unconfirmed</tspan></text>
<rect x="600" y="1079" width="330" height="66" rx="6" ry="6" fill="#F8CECC" stroke="#B85450" stroke-width="1.5"/>
<text x="765.0" y="1103" text-anchor="middle" font-family="Helvetica,Arial,sans-serif" font-size="11" font-weight="bold" fill="#8a1f1f"><tspan x="765.0" dy="0">ABORT</tspan></text>
<text x="765.0" y="1108" text-anchor="middle" font-family="Helvetica,Arial,sans-serif" font-size="10.5" fill="#5b1414"><tspan x="765.0" dy="0">BUNDLE, unrecognized or UNCONFIRMED</tspan><tspan x="765.0" dy="14">mode, or install-oper unreadable</tspan><tspan x="765.0" dy="14">(fail-closed — no override exists)</tspan></text>
<path d="M 275 1112 L 250 1112" fill="none" stroke="#D79B00" stroke-width="1.5" stroke-dasharray="5,4" marker-end="url(#arrow)"/>
<rect x="213" y="1093" width="99" height="18" rx="3" fill="#ffffff" fill-opacity="0.85" stroke="none"/><text x="262.5" y="1106" text-anchor="middle" font-family="Helvetica,Arial,sans-serif" font-size="11" fill="#B7791f"><tspan x="262.5" dy="0">install-bundle</tspan></text>
<rect x="30" y="1082" width="220" height="60" rx="6" ry="6" fill="#FFE6CC" stroke="#D79B00" stroke-width="1.5"/>
<text x="140.0" y="1105" text-anchor="middle" font-family="Helvetica,Arial,sans-serif" font-size="10.5" fill="#7a4f00"><tspan x="140.0" dy="0">install-bundle variant → proceed</tspan><tspan x="140.0" dy="14">(install mode, booted from a .bin)</tspan></text>
<path d="M 140 1142 L 140 1208 L 250 1208" fill="none" stroke="#D79B00" stroke-width="1.5" stroke-dasharray="5,4" marker-end="url(#arrow)"/>
<rect x="165" y="1189" width="60" height="18" rx="3" fill="#ffffff" fill-opacity="0.85" stroke="none"/><text x="195.0" y="1202" text-anchor="middle" font-family="Helvetica,Arial,sans-serif" font-size="11" fill="#B7791f"><tspan x="195.0" dy="0">continue</tspan></text>
<path d="M 525 1304 L 600 1304" fill="none" stroke="#B85450" stroke-width="1.5" marker-end="url(#arrow)"/>
<rect x="552" y="1285" width="21" height="18" rx="3" fill="#ffffff" fill-opacity="0.85" stroke="none"/><text x="562.5" y="1298" text-anchor="middle" font-family="Helvetica,Arial,sans-serif" font-size="11" fill="#B85450"><tspan x="562.5" dy="0">No</tspan></text>
<rect x="600" y="1271" width="330" height="66" rx="6" ry="6" fill="#F8CECC" stroke="#B85450" stroke-width="1.5"/>
<text x="765.0" y="1295" text-anchor="middle" font-family="Helvetica,Arial,sans-serif" font-size="11" font-weight="bold" fill="#8a1f1f"><tspan x="765.0" dy="0">ABORT</tspan></text>
<text x="765.0" y="1306" text-anchor="middle" font-family="Helvetica,Arial,sans-serif" font-size="10.5" fill="#5b1414"><tspan x="765.0" dy="0">No compatible image, or missing</tspan><tspan x="765.0" dy="14">filename / download URL</tspan></text>
<path d="M 525 1496 L 600 1496" fill="none" stroke="#B85450" stroke-width="1.5" marker-end="url(#arrow)"/>
<rect x="552" y="1477" width="21" height="18" rx="3" fill="#ffffff" fill-opacity="0.85" stroke="none"/><text x="562.5" y="1490" text-anchor="middle" font-family="Helvetica,Arial,sans-serif" font-size="11" fill="#B85450"><tspan x="562.5" dy="0">No</tspan></text>
<rect x="600" y="1463" width="330" height="66" rx="6" ry="6" fill="#F8CECC" stroke="#B85450" stroke-width="1.5"/>
<text x="765.0" y="1487" text-anchor="middle" font-family="Helvetica,Arial,sans-serif" font-size="11" font-weight="bold" fill="#8a1f1f"><tspan x="765.0" dy="0">ABORT</tspan></text>
<text x="765.0" y="1498" text-anchor="middle" font-family="Helvetica,Arial,sans-serif" font-size="10.5" fill="#5b1414"><tspan x="765.0" dy="0">Free space unconfirmed or</tspan><tspan x="765.0" dy="14">insufficient</tspan></text>
<path d="M 275 1592 L 250 1592" fill="none" stroke="#D79B00" stroke-width="1.5" stroke-dasharray="5,4" marker-end="url(#arrow)"/>
<rect x="249" y="1573" width="28" height="18" rx="3" fill="#ffffff" fill-opacity="0.85" stroke="none"/><text x="262.5" y="1586" text-anchor="middle" font-family="Helvetica,Arial,sans-serif" font-size="11" fill="#B7791f"><tspan x="262.5" dy="0">Yes</tspan></text>
<rect x="30" y="1562" width="220" height="60" rx="6" ry="6" fill="#FFE6CC" stroke="#D79B00" stroke-width="1.5"/>
<text x="140.0" y="1578" text-anchor="middle" font-family="Helvetica,Arial,sans-serif" font-size="10.5" fill="#7a4f00"><tspan x="140.0" dy="0">Remove ALL inactive/staged software</tspan><tspan x="140.0" dy="14">(engine-decided; overrides the staged-</tspan><tspan x="140.0" dy="14">conflict stop; failures ABORT)</tspan></text>
<path d="M 140 1622 L 140 1688 L 275 1688" fill="none" stroke="#D79B00" stroke-width="1.5" stroke-dasharray="5,4" marker-end="url(#arrow)"/>
<rect x="178" y="1669" width="60" height="18" rx="3" fill="#ffffff" fill-opacity="0.85" stroke="none"/><text x="207.5" y="1682" text-anchor="middle" font-family="Helvetica,Arial,sans-serif" font-size="11" fill="#B7791f"><tspan x="207.5" dy="0">continue</tspan></text>
<path d="M 525 1688 L 600 1688" fill="none" stroke="#2E7D32" stroke-width="1.5" marker-end="url(#arrow)"/>
<rect x="549" y="1669" width="28" height="18" rx="3" fill="#ffffff" fill-opacity="0.85" stroke="none"/><text x="562.5" y="1682" text-anchor="middle" font-family="Helvetica,Arial,sans-serif" font-size="11" fill="#2E7D32"><tspan x="562.5" dy="0">Yes</tspan></text>
<rect x="600" y="1660" width="330" height="56" rx="22" ry="22" fill="#D5E8D4" stroke="#2E7D32" stroke-width="1.5"/>
<text x="765.0" y="1681" text-anchor="middle" font-family="Helvetica,Arial,sans-serif" font-size="11" font-weight="bold" fill="#1b5e20"><tspan x="765.0" dy="0">DONE: DRY-RUN — pre-flight</tspan><tspan x="765.0" dy="14">passed, no changes made</tspan></text>
<path d="M 525 1880 L 600 1880" fill="none" stroke="#B85450" stroke-width="1.5" marker-end="url(#arrow)"/>
<rect x="474" y="1861" width="177" height="18" rx="3" fill="#ffffff" fill-opacity="0.85" stroke="none"/><text x="562.5" y="1867" text-anchor="middle" font-family="Helvetica,Arial,sans-serif" font-size="11" fill="#B85450"><tspan x="562.5" dy="0">error / timeout /</tspan><tspan x="562.5" dy="14">mismatch</tspan></text>
<rect x="600" y="1847" width="330" height="66" rx="6" ry="6" fill="#F8CECC" stroke="#B85450" stroke-width="1.5"/>
<text x="765.0" y="1871" text-anchor="middle" font-family="Helvetica,Arial,sans-serif" font-size="11" font-weight="bold" fill="#8a1f1f"><tspan x="765.0" dy="0">ABORT</tspan></text>
<text x="765.0" y="1882" text-anchor="middle" font-family="Helvetica,Arial,sans-serif" font-size="10.5" fill="#5b1414"><tspan x="765.0" dy="0">Copy RPC failed/refused, timed out,</tspan><tspan x="765.0" dy="14">or on-device size ≠ expected — abort</tspan></text>
<path d="M 275 1880 L 250 1880" fill="none" stroke="#D79B00" stroke-width="1.5" stroke-dasharray="5,4" marker-end="url(#arrow)"/>
<rect x="220" y="1861" width="86" height="18" rx="3" fill="#ffffff" fill-opacity="0.85" stroke="none"/><text x="262.5" y="1874" text-anchor="middle" font-family="Helvetica,Arial,sans-serif" font-size="11" fill="#B7791f"><tspan x="262.5" dy="0">size unknown</tspan></text>
<rect x="30" y="1850" width="220" height="60" rx="6" ry="6" fill="#FFE6CC" stroke="#D79B00" stroke-width="1.5"/>
<text x="140.0" y="1873" text-anchor="middle" font-family="Helvetica,Arial,sans-serif" font-size="10.5" fill="#7a4f00"><tspan x="140.0" dy="0">No expected size → warn; rely on</tspan><tspan x="140.0" dy="14">install add signature validation</tspan></text>
<path d="M 140 1910 L 140 1976 L 275 1976" fill="none" stroke="#D79B00" stroke-width="1.5" stroke-dasharray="5,4" marker-end="url(#arrow)"/>
<rect x="178" y="1957" width="60" height="18" rx="3" fill="#ffffff" fill-opacity="0.85" stroke="none"/><text x="207.5" y="1970" text-anchor="middle" font-family="Helvetica,Arial,sans-serif" font-size="11" fill="#B7791f"><tspan x="207.5" dy="0">continue</tspan></text>
<path d="M 525 1976 L 600 1976" fill="none" stroke="#2E7D32" stroke-width="1.5" marker-end="url(#arrow)"/>
<rect x="549" y="1957" width="28" height="18" rx="3" fill="#ffffff" fill-opacity="0.85" stroke="none"/><text x="562.5" y="1970" text-anchor="middle" font-family="Helvetica,Arial,sans-serif" font-size="11" fill="#2E7D32"><tspan x="562.5" dy="0">Yes</tspan></text>
<rect x="600" y="1948" width="330" height="56" rx="22" ry="22" fill="#D5E8D4" stroke="#2E7D32" stroke-width="1.5"/>
<text x="765.0" y="1969" text-anchor="middle" font-family="Helvetica,Arial,sans-serif" font-size="11" font-weight="bold" fill="#1b5e20"><tspan x="765.0" dy="0">DONE: STAGED (copy) — window run</tspan><tspan x="765.0" dy="14">will skip the verified copy</tspan></text>
<path d="M 525 2264 L 600 2264" fill="none" stroke="#2E7D32" stroke-width="1.5" marker-end="url(#arrow)"/>
<rect x="549" y="2245" width="28" height="18" rx="3" fill="#ffffff" fill-opacity="0.85" stroke="none"/><text x="562.5" y="2258" text-anchor="middle" font-family="Helvetica,Arial,sans-serif" font-size="11" fill="#2E7D32"><tspan x="562.5" dy="0">Yes</tspan></text>
<rect x="600" y="2236" width="330" height="56" rx="22" ry="22" fill="#D5E8D4" stroke="#2E7D32" stroke-width="1.5"/>
<text x="765.0" y="2250" text-anchor="middle" font-family="Helvetica,Arial,sans-serif" font-size="11" font-weight="bold" fill="#1b5e20"><tspan x="765.0" dy="0">DONE: STAGED (add) — marked for</tspan><tspan x="765.0" dy="14">activation; window run: activate →</tspan><tspan x="765.0" dy="14">reload → commit only</tspan></text>
<path d="M 525 2552 L 600 2552" fill="none" stroke="#B85450" stroke-width="1.5" marker-end="url(#arrow)"/>
<rect x="552" y="2533" width="21" height="18" rx="3" fill="#ffffff" fill-opacity="0.85" stroke="none"/><text x="562.5" y="2546" text-anchor="middle" font-family="Helvetica,Arial,sans-serif" font-size="11" fill="#B85450"><tspan x="562.5" dy="0">No</tspan></text>
<rect x="600" y="2519" width="330" height="66" rx="6" ry="6" fill="#F8CECC" stroke="#B85450" stroke-width="1.5"/>
<text x="765.0" y="2543" text-anchor="middle" font-family="Helvetica,Arial,sans-serif" font-size="11" font-weight="bold" fill="#8a1f1f"><tspan x="765.0" dy="0">ABORT</tspan></text>
<text x="765.0" y="2548" text-anchor="middle" font-family="Helvetica,Arial,sans-serif" font-size="10.5" fill="#5b1414"><tspan x="765.0" dy="0">Ledger-recorded failure, or never</tspan><tspan x="765.0" dy="14">registered despite re-sends — abort</tspan><tspan x="765.0" dy="14">(engaged runs get an extended budget)</tspan></text>
<path d="M 525 2744 L 600 2744" fill="none" stroke="#B85450" stroke-width="1.5" marker-end="url(#arrow)"/>
<rect x="552" y="2725" width="21" height="18" rx="3" fill="#ffffff" fill-opacity="0.85" stroke="none"/><text x="562.5" y="2738" text-anchor="middle" font-family="Helvetica,Arial,sans-serif" font-size="11" fill="#B85450"><tspan x="562.5" dy="0">No</tspan></text>
<rect x="600" y="2711" width="330" height="66" rx="6" ry="6" fill="#F8CECC" stroke="#B85450" stroke-width="1.5"/>
<text x="765.0" y="2735" text-anchor="middle" font-family="Helvetica,Arial,sans-serif" font-size="11" font-weight="bold" fill="#8a1f1f"><tspan x="765.0" dy="0">ABORT</tspan></text>
<text x="765.0" y="2746" text-anchor="middle" font-family="Helvetica,Arial,sans-serif" font-size="10.5" fill="#5b1414"><tspan x="765.0" dy="0">Not confirmed before timeout — NOT</tspan><tspan x="765.0" dy="14">committed; auto-rollback should revert</tspan></text>
<path d="M 525 2840 L 600 2840" fill="none" stroke="#B85450" stroke-width="1.5" marker-end="url(#arrow)"/>
<rect x="552" y="2821" width="21" height="18" rx="3" fill="#ffffff" fill-opacity="0.85" stroke="none"/><text x="562.5" y="2834" text-anchor="middle" font-family="Helvetica,Arial,sans-serif" font-size="11" fill="#B85450"><tspan x="562.5" dy="0">No</tspan></text>
<rect x="600" y="2807" width="330" height="66" rx="6" ry="6" fill="#F8CECC" stroke="#B85450" stroke-width="1.5"/>
<text x="765.0" y="2831" text-anchor="middle" font-family="Helvetica,Arial,sans-serif" font-size="11" font-weight="bold" fill="#8a1f1f"><tspan x="765.0" dy="0">ABORT</tspan></text>
<text x="765.0" y="2842" text-anchor="middle" font-family="Helvetica,Arial,sans-serif" font-size="10.5" fill="#5b1414"><tspan x="765.0" dy="0">Member(s) missing after reload — NOT</tspan><tspan x="765.0" dy="14">committed; auto-rollback should revert</tspan></text>
<path d="M 275 2840 L 250 2840" fill="none" stroke="#D79B00" stroke-width="1.5" stroke-dasharray="5,4" marker-end="url(#arrow)"/>
<rect x="213" y="2821" width="99" height="18" rx="3" fill="#ffffff" fill-opacity="0.85" stroke="none"/><text x="262.5" y="2834" text-anchor="middle" font-family="Helvetica,Arial,sans-serif" font-size="11" fill="#B7791f"><tspan x="262.5" dy="0">roster unknown</tspan></text>
<rect x="30" y="2810" width="220" height="60" rx="6" ry="6" fill="#FFE6CC" stroke="#D79B00" stroke-width="1.5"/>
<text x="140.0" y="2833" text-anchor="middle" font-family="Helvetica,Arial,sans-serif" font-size="10.5" fill="#7a4f00"><tspan x="140.0" dy="0">Roster unreadable pre-upgrade →</tspan><tspan x="140.0" dy="14">skip completeness check</tspan></text>
<path d="M 140 2870 L 140 2936 L 250 2936" fill="none" stroke="#D79B00" stroke-width="1.5" stroke-dasharray="5,4" marker-end="url(#arrow)"/>
<rect x="165" y="2917" width="60" height="18" rx="3" fill="#ffffff" fill-opacity="0.85" stroke="none"/><text x="195.0" y="2930" text-anchor="middle" font-family="Helvetica,Arial,sans-serif" font-size="11" fill="#B7791f"><tspan x="195.0" dy="0">continue</tspan></text>
<path d="M 525 3128 L 600 3128" fill="none" stroke="#B85450" stroke-width="1.5" marker-end="url(#arrow)"/>
<rect x="539" y="3109" width="47" height="18" rx="3" fill="#ffffff" fill-opacity="0.85" stroke="none"/><text x="562.5" y="3122" text-anchor="middle" font-family="Helvetica,Arial,sans-serif" font-size="11" fill="#B85450"><tspan x="562.5" dy="0">failed</tspan></text>
<rect x="600" y="3095" width="330" height="66" rx="6" ry="6" fill="#F8CECC" stroke="#B85450" stroke-width="1.5"/>
<text x="765.0" y="3119" text-anchor="middle" font-family="Helvetica,Arial,sans-serif" font-size="11" font-weight="bold" fill="#8a1f1f"><tspan x="765.0" dy="0">ABORT</tspan></text>
<text x="765.0" y="3130" text-anchor="middle" font-family="Helvetica,Arial,sans-serif" font-size="10.5" fill="#5b1414"><tspan x="765.0" dy="0">Commit failed — ACTIVATED but NOT</tspan><tspan x="765.0" dy="14">committed; manual intervention / re-run</tspan></text>
<path d="M 275 3128 L 250 3128" fill="none" stroke="#D79B00" stroke-width="1.5" stroke-dasharray="5,4" marker-end="url(#arrow)"/>
<rect x="223" y="3109" width="80" height="18" rx="3" fill="#ffffff" fill-opacity="0.85" stroke="none"/><text x="262.5" y="3122" text-anchor="middle" font-family="Helvetica,Arial,sans-serif" font-size="11" fill="#B7791f"><tspan x="262.5" dy="0">unconfirmed</tspan></text>
<rect x="30" y="3098" width="220" height="60" rx="6" ry="6" fill="#FFE6CC" stroke="#D79B00" stroke-width="1.5"/>
<text x="140.0" y="3114" text-anchor="middle" font-family="Helvetica,Arial,sans-serif" font-size="10.5" fill="#7a4f00"><tspan x="140.0" dy="0">Not confirmed in time → warn;</tspan><tspan x="140.0" dy="14">verify manually (remove-inactive</tspan><tspan x="140.0" dy="14">is skipped)</tspan></text>
<path d="M 140 3158 L 140 3224 L 250 3224" fill="none" stroke="#D79B00" stroke-width="1.5" stroke-dasharray="5,4" marker-end="url(#arrow)"/>
<rect x="165" y="3205" width="60" height="18" rx="3" fill="#ffffff" fill-opacity="0.85" stroke="none"/><text x="195.0" y="3218" text-anchor="middle" font-family="Helvetica,Arial,sans-serif" font-size="11" fill="#B7791f"><tspan x="195.0" dy="0">continue</tspan></text>
<rect x="250" y="31" width="300" height="50" rx="24" ry="24" fill="#DAE8FC" stroke="#6C8EBF" stroke-width="1.5"/>
<text x="400" y="48" text-anchor="middle" font-family="Helvetica,Arial,sans-serif" font-size="12" font-weight="bold" fill="#1b3a6b"><tspan x="400" dy="0">FOR EACH selected device</tspan><tspan x="400" dy="15">(up to &#x27;Parallelism&#x27; concurrently)</tspan></text>
<rect x="250" y="124" width="300" height="56" rx="6" ry="6" fill="#FFFFFF" stroke="#5B6B7B" stroke-width="1.5"/>
<text x="400" y="145" text-anchor="middle" font-family="Helvetica,Arial,sans-serif" font-size="11" fill="#1a1a1a"><tspan x="400" dy="0">Resolve mgmt host</tspan><tspan x="400" dy="14">(primary_ip4 / primary_ip)</tspan></text>
<polygon points="400,206.0 525.0,248 400,290.0 275.0,248" fill="#E8EEF6" stroke="#3C6CA8" stroke-width="1.5"/>
<text x="400" y="248" text-anchor="middle" font-family="Helvetica,Arial,sans-serif" font-size="11" font-weight="bold" fill="#13335c"><tspan x="400" dy="0">Primary IP set?</tspan></text>
<rect x="250" y="316" width="300" height="56" rx="6" ry="6" fill="#FFFFFF" stroke="#5B6B7B" stroke-width="1.5"/>
<text x="400" y="337" text-anchor="middle" font-family="Helvetica,Arial,sans-serif" font-size="11" fill="#1a1a1a"><tspan x="400" dy="0">Resolve credentials</tspan><tspan x="400" dy="14">(job override OR device Secrets Group)</tspan></text>
<polygon points="400,398.0 525.0,440 400,482.0 275.0,440" fill="#E8EEF6" stroke="#3C6CA8" stroke-width="1.5"/>
<text x="400" y="433" text-anchor="middle" font-family="Helvetica,Arial,sans-serif" font-size="11" font-weight="bold" fill="#13335c"><tspan x="400" dy="0">Secrets group +</tspan><tspan x="400" dy="14">username &amp; password?</tspan></text>
<rect x="250" y="508" width="300" height="56" rx="6" ry="6" fill="#FFFFFF" stroke="#5B6B7B" stroke-width="1.5"/>
<text x="400" y="529" text-anchor="middle" font-family="Helvetica,Arial,sans-serif" font-size="11" fill="#1a1a1a"><tspan x="400" dy="0">GET device-system-data</tspan><tspan x="400" dy="14">(auth + reachability)</tspan></text>
<polygon points="400,590.0 525.0,632 400,674.0 275.0,632" fill="#E8EEF6" stroke="#3C6CA8" stroke-width="1.5"/>
<text x="400" y="625" text-anchor="middle" font-family="Helvetica,Arial,sans-serif" font-size="11" font-weight="bold" fill="#13335c"><tspan x="400" dy="0">Reachable &amp;</tspan><tspan x="400" dy="14">authenticated?</tspan></text>
<rect x="250" y="700" width="300" height="56" rx="6" ry="6" fill="#FFFFFF" stroke="#5B6B7B" stroke-width="1.5"/>
<text x="400" y="721" text-anchor="middle" font-family="Helvetica,Arial,sans-serif" font-size="11" fill="#1a1a1a"><tspan x="400" dy="0">Read current version</tspan><tspan x="400" dy="14">(from the reachability response)</tspan></text>
<polygon points="400,782.0 525.0,824 400,866.0 275.0,824" fill="#E8EEF6" stroke="#3C6CA8" stroke-width="1.5"/>
<text x="400" y="817" text-anchor="middle" font-family="Helvetica,Arial,sans-serif" font-size="11" font-weight="bold" fill="#13335c"><tspan x="400" dy="0">Already on</tspan><tspan x="400" dy="14">target version?</tspan></text>
<polygon points="400,878.0 525.0,920 400,962.0 275.0,920" fill="#E8EEF6" stroke="#3C6CA8" stroke-width="1.5"/>
<text x="400" y="913" text-anchor="middle" font-family="Helvetica,Arial,sans-serif" font-size="11" font-weight="bold" fill="#13335c"><tspan x="400" dy="0">Version parses</tspan><tspan x="400" dy="14">&amp; ≥ 17.9.1?</tspan></text>
<rect x="250" y="988" width="300" height="56" rx="6" ry="6" fill="#FFFFFF" stroke="#5B6B7B" stroke-width="1.5"/>
<text x="400" y="1009" text-anchor="middle" font-family="Helvetica,Arial,sans-serif" font-size="11" fill="#1a1a1a"><tspan x="400" dy="0">Read oper-state boot-mode</tspan><tspan x="400" dy="14">(install-oper, all members)</tspan></text>
<polygon points="400,1070.0 525.0,1112 400,1154.0 275.0,1112" fill="#E8EEF6" stroke="#3C6CA8" stroke-width="1.5"/>
<text x="400" y="1105" text-anchor="middle" font-family="Helvetica,Arial,sans-serif" font-size="11" font-weight="bold" fill="#13335c"><tspan x="400" dy="0">All members</tspan><tspan x="400" dy="14">INSTALL mode?</tspan></text>
<rect x="250" y="1180" width="300" height="56" rx="6" ry="6" fill="#FFFFFF" stroke="#5B6B7B" stroke-width="1.5"/>
<text x="400" y="1201" text-anchor="middle" font-family="Helvetica,Arial,sans-serif" font-size="11" fill="#1a1a1a"><tspan x="400" dy="0">Resolve image (device override →</tspan><tspan x="400" dy="14">device-type map → default)</tspan></text>
<polygon points="400,1262.0 525.0,1304 400,1346.0 275.0,1304" fill="#E8EEF6" stroke="#3C6CA8" stroke-width="1.5"/>
<text x="400" y="1297" text-anchor="middle" font-family="Helvetica,Arial,sans-serif" font-size="11" font-weight="bold" fill="#13335c"><tspan x="400" dy="0">Image has filename</tspan><tspan x="400" dy="14">&amp; download URL?</tspan></text>
<rect x="250" y="1372" width="300" height="56" rx="6" ry="6" fill="#FFFFFF" stroke="#5B6B7B" stroke-width="1.5"/>
<text x="400" y="1393" text-anchor="middle" font-family="Helvetica,Arial,sans-serif" font-size="11" fill="#1a1a1a"><tspan x="400" dy="0">Read free space</tspan><tspan x="400" dy="14">(q-filesystem, exact flash: match)</tspan></text>
<polygon points="400,1454.0 525.0,1496 400,1538.0 275.0,1496" fill="#E8EEF6" stroke="#3C6CA8" stroke-width="1.5"/>
<text x="400" y="1489" text-anchor="middle" font-family="Helvetica,Arial,sans-serif" font-size="11" font-weight="bold" fill="#13335c"><tspan x="400" dy="0">Free ≥ image × 2</tspan><tspan x="400" dy="14">(or ≥ 2 GB if size unknown)?</tspan></text>
<polygon points="400,1550.0 525.0,1592 400,1634.0 275.0,1592" fill="#E8EEF6" stroke="#3C6CA8" stroke-width="1.5"/>
<text x="400" y="1585" text-anchor="middle" font-family="Helvetica,Arial,sans-serif" font-size="11" font-weight="bold" fill="#13335c"><tspan x="400" dy="0">Clean device first</tspan><tspan x="400" dy="14">ticked? (default off)</tspan></text>
<polygon points="400,1646.0 525.0,1688 400,1730.0 275.0,1688" fill="#E8EEF6" stroke="#3C6CA8" stroke-width="1.5"/>
<text x="400" y="1688" text-anchor="middle" font-family="Helvetica,Arial,sans-serif" font-size="11" font-weight="bold" fill="#13335c"><tspan x="400" dy="0">Dry-run?</tspan></text>
<rect x="250" y="1756" width="300" height="56" rx="6" ry="6" fill="#FFFFFF" stroke="#5B6B7B" stroke-width="1.5"/>
<text x="400" y="1770" text-anchor="middle" font-family="Helvetica,Arial,sans-serif" font-size="11" fill="#1a1a1a"><tspan x="400" dy="0">URL preflight (404 aborts) → classic copy in</tspan><tspan x="400" dy="14">worker thread + size-poll progress</tspan><tspan x="400" dy="14">(skipped if the exact file is already on flash)</tspan></text>
<polygon points="400,1838.0 525.0,1880 400,1922.0 275.0,1880" fill="#E8EEF6" stroke="#3C6CA8" stroke-width="1.5"/>
<text x="400" y="1873" text-anchor="middle" font-family="Helvetica,Arial,sans-serif" font-size="11" font-weight="bold" fill="#13335c"><tspan x="400" dy="0">Transfer complete</tspan><tspan x="400" dy="14">&amp; size matches?</tspan></text>
<polygon points="400,1934.0 525.0,1976 400,2018.0 275.0,1976" fill="#E8EEF6" stroke="#3C6CA8" stroke-width="1.5"/>
<text x="400" y="1969" text-anchor="middle" font-family="Helvetica,Arial,sans-serif" font-size="11" font-weight="bold" fill="#13335c"><tspan x="400" dy="0">Run scope =</tspan><tspan x="400" dy="14">stage-copy?</tspan></text>
<rect x="250" y="2044" width="300" height="56" rx="6" ry="6" fill="#FFFFFF" stroke="#5B6B7B" stroke-width="1.5"/>
<text x="400" y="2065" text-anchor="middle" font-family="Helvetica,Arial,sans-serif" font-size="11" fill="#1a1a1a"><tspan x="400" dy="0">Capture stack member roster</tspan><tspan x="400" dy="14">(chassis serials from inventory)</tspan></text>
<rect x="250" y="2140" width="300" height="56" rx="6" ry="6" fill="#FFFFFF" stroke="#5B6B7B" stroke-width="1.5"/>
<text x="400" y="2154" text-anchor="middle" font-family="Helvetica,Arial,sans-serif" font-size="11" fill="#1a1a1a"><tspan x="400" dy="0">install add (skipped if already staged) →</tspan><tspan x="400" dy="14">track our op-uuid in the operation ledger</tspan><tspan x="400" dy="14">to op-complete (state inference fallback)</tspan></text>
<polygon points="400,2222.0 525.0,2264 400,2306.0 275.0,2264" fill="#E8EEF6" stroke="#3C6CA8" stroke-width="1.5"/>
<text x="400" y="2257" text-anchor="middle" font-family="Helvetica,Arial,sans-serif" font-size="11" font-weight="bold" fill="#13335c"><tspan x="400" dy="0">Run scope =</tspan><tspan x="400" dy="14">stage-add?</tspan></text>
<rect x="250" y="2332" width="300" height="56" rx="6" ry="6" fill="#FFFFFF" stroke="#5B6B7B" stroke-width="1.5"/>
<text x="400" y="2346" text-anchor="middle" font-family="Helvetica,Arial,sans-serif" font-size="11" fill="#1a1a1a"><tspan x="400" dy="0">Engine-idle gate before EVERY install write:</tspan><tspan x="400" dy="14">sys-activity = no-activity on all members</tspan><tspan x="400" dy="14">(settle delay only pre-activate w/o signal)</tspan></text>
<rect x="250" y="2428" width="300" height="56" rx="6" ry="6" fill="#FFFFFF" stroke="#5B6B7B" stroke-width="1.5"/>
<text x="400" y="2442" text-anchor="middle" font-family="Helvetica,Arial,sans-serif" font-size="11" fill="#1a1a1a"><tspan x="400" dy="0">install activate (non-ISSU, by full internal</tspan><tspan x="400" dy="14">version; ledger-tracked,</tspan><tspan x="400" dy="14">re-sent on ledger-absent evidence)</tspan></text>
<polygon points="400,2510.0 525.0,2552 400,2594.0 275.0,2552" fill="#E8EEF6" stroke="#3C6CA8" stroke-width="1.5"/>
<text x="400" y="2545" text-anchor="middle" font-family="Helvetica,Arial,sans-serif" font-size="11" font-weight="bold" fill="#13335c"><tspan x="400" dy="0">Activation started?</tspan><tspan x="400" dy="14">(ledger / state / device drop)</tspan></text>
<rect x="250" y="2620" width="300" height="56" rx="6" ry="6" fill="#FFFFFF" stroke="#5B6B7B" stroke-width="1.5"/>
<text x="400" y="2634" text-anchor="middle" font-family="Helvetica,Arial,sans-serif" font-size="11" fill="#1a1a1a"><tspan x="400" dy="0">Wait for reload: must observe the device</tspan><tspan x="400" dy="14">go DOWN, then boot the target stably</tspan><tspan x="400" dy="14">(2 consecutive matching polls)</tspan></text>
<polygon points="400,2702.0 525.0,2744 400,2786.0 275.0,2744" fill="#E8EEF6" stroke="#3C6CA8" stroke-width="1.5"/>
<text x="400" y="2737" text-anchor="middle" font-family="Helvetica,Arial,sans-serif" font-size="11" font-weight="bold" fill="#13335c"><tspan x="400" dy="0">Target version</tspan><tspan x="400" dy="14">stably confirmed?</tspan></text>
<polygon points="400,2798.0 525.0,2840 400,2882.0 275.0,2840" fill="#E8EEF6" stroke="#3C6CA8" stroke-width="1.5"/>
<text x="400" y="2833" text-anchor="middle" font-family="Helvetica,Arial,sans-serif" font-size="11" font-weight="bold" fill="#13335c"><tspan x="400" dy="0">All stack members</tspan><tspan x="400" dy="14">rejoined?</tspan></text>
<rect x="250" y="2908" width="300" height="56" rx="6" ry="6" fill="#FFFFFF" stroke="#5B6B7B" stroke-width="1.5"/>
<text x="400" y="2929" text-anchor="middle" font-family="Helvetica,Arial,sans-serif" font-size="11" fill="#1a1a1a"><tspan x="400" dy="0">Report auto-rollback timer status</tspan><tspan x="400" dy="14">(informational; commit follows)</tspan></text>
<rect x="250" y="3004" width="300" height="56" rx="6" ry="6" fill="#FFFFFF" stroke="#5B6B7B" stroke-width="1.5"/>
<text x="400" y="3025" text-anchor="middle" font-family="Helvetica,Arial,sans-serif" font-size="11" fill="#1a1a1a"><tspan x="400" dy="0">install commit → ledger-confirmed,</tspan><tspan x="400" dy="14">cross-checked against committed state</tspan></text>
<polygon points="400,3086.0 525.0,3128 400,3170.0 275.0,3128" fill="#E8EEF6" stroke="#3C6CA8" stroke-width="1.5"/>
<text x="400" y="3121" text-anchor="middle" font-family="Helvetica,Arial,sans-serif" font-size="11" font-weight="bold" fill="#13335c"><tspan x="400" dy="0">Commit</tspan><tspan x="400" dy="14">succeeded?</tspan></text>
<rect x="250" y="3196" width="300" height="56" rx="6" ry="6" fill="#FFFFFF" stroke="#5B6B7B" stroke-width="1.5"/>
<text x="400" y="3217" text-anchor="middle" font-family="Helvetica,Arial,sans-serif" font-size="11" fill="#1a1a1a"><tspan x="400" dy="0">Sync Nautobot software_version</tspan><tspan x="400" dy="14">(warn on fail; already committed)</tspan></text>
<polygon points="400,3278.0 525.0,3320 400,3362.0 275.0,3320" fill="#E8EEF6" stroke="#3C6CA8" stroke-width="1.5"/>
<text x="400" y="3313" text-anchor="middle" font-family="Helvetica,Arial,sans-serif" font-size="11" font-weight="bold" fill="#13335c"><tspan x="400" dy="0">remove_inactive</tspan><tspan x="400" dy="14">enabled?</tspan></text>
<rect x="250" y="3388" width="300" height="56" rx="6" ry="6" fill="#FFFFFF" stroke="#5B6B7B" stroke-width="1.5"/>
<text x="400" y="3409" text-anchor="middle" font-family="Helvetica,Arial,sans-serif" font-size="11" fill="#1a1a1a"><tspan x="400" dy="0">install remove inactive (idle-gated,</tspan><tspan x="400" dy="14">ledger-tracked; warn on fail)</tspan></text>
<rect x="240" y="3485" width="320" height="54" rx="24" ry="24" fill="#D5E8D4" stroke="#2E7D32" stroke-width="1.5"/>
<text x="400" y="3512" text-anchor="middle" font-family="Helvetica,Arial,sans-serif" font-size="12" font-weight="bold" fill="#14532d"><tspan x="400" dy="0">DONE: UPGRADED &amp; COMMITTED ✓</tspan></text>
</svg>